<svg xmlns="http://www.w3.org/2000/svg" width="71" height="34" viewBox="0 0 71 34">
    <g fill="none" fill-rule="evenodd">
        <path fill="#D5D8ED" d="M22.65 23.664c.638-.064 1.085-.575 1.085-1.15V6.17c0-6.066 7.79-9.003 11.94-1.916a2292.96 2292.96 0 0 1 6.64 11.43V6.169c0-6.066 7.79-9.003 11.94-1.916 2.224 3.804 4.437 7.614 6.64 11.43V.23h9.322v27.072c0 6.96-8.173 8.045-11.493 2.49-1.98-3.256-7.087-11.684-7.087-11.684v9.195c.063 6.959-8.11 8.044-11.493 2.49a3178.743 3178.743 0 0 1-7.024-11.685v8.3c0 4.279-2.49 6.514-6.384 6.514h-9.003C-5.317 32.923-5.508.23 17.413.23h5.109V9.49h-5.62c-9.385 0-10.407 14.175.64 14.175h5.108v-.001z"/>
        <path stroke="#F0F2FF" stroke-width="1.041" d="M65.556.23v26.498c0 1.66-1.596 2.043-2.425.894 0 0-10.855-17.431-13.6-21.964-.831-1.15-2.555-.766-2.555.958v20.112c0 1.66-1.532 2.043-2.362.894 0 0-10.918-17.431-13.664-21.964-.83-1.15-2.554-.766-2.554.958V26.6c0 .893-.702 1.66-1.66 1.66h-9.642c-16.409 0-15.898-23.37-.382-23.37h5.938"/>
    </g>
</svg>
