<svg xmlns="http://www.w3.org/2000/svg" width="170" height="34" viewBox="0 0 170 34">
    <path fill="#D5D8ED" fill-rule="nonzero" d="M87.49 16.606c-1.402 0-2.413.46-3.438.928v10.602c.981.093 1.544.093 2.476.093 3.366 0 3.827-1.541 3.827-3.694v-5.063c0-1.59-.527-2.866-2.865-2.866zm-22.356-.579c-2.335 0-2.868 1.282-2.868 2.87v.892H68v-.892c0-1.588-.533-2.87-2.866-2.87zM21.827 27.062c0 1.256.592 1.909 1.9 1.909 1.404 0 2.235-.458 3.26-.928v-2.515h-3.07c-1.452 0-2.09.27-2.09 1.534zm87.41-10.456c-2.34 0-3.15 1.276-3.15 2.866v5.8c0 1.594.81 2.875 3.15 2.875 2.333 0 3.15-1.28 3.15-2.874v-5.801c-.001-1.59-.818-2.866-3.15-2.866zm-98.875 16.96H3.485V16.921H.049v-5.736h3.437V7.74C3.486 3.06 5.425.28 10.937.28h4.59v5.737h-2.869c-2.146 0-2.287.802-2.287 2.298l-.01 2.87h5.197l-.608 5.736h-4.588v16.646zm23.503.043h-5.732l-.248-1.45a13.137 13.137 0 0 1-6.493 1.686c-4.203 0-6.44-2.809-6.44-6.692 0-4.581 2.61-6.217 7.28-6.217h4.754v-.99c0-2.339-.268-3.025-3.865-3.025h-5.88l.575-5.736h6.427c7.891 0 9.622 2.493 9.622 8.807V33.61zm19.49-16.268c-3.567-.611-4.591-.746-6.307-.746-3.082 0-4.014.68-4.014 3.298v4.952c0 2.618.932 3.3 4.014 3.3 1.716 0 2.74-.136 6.307-.75v5.595c-3.124.7-5.16.884-6.88.884-7.383 0-10.317-3.882-10.317-9.491v-4.018c0-5.614 2.934-9.504 10.318-9.504 1.72 0 3.755.185 6.879.889v5.591zm21.52 7.042h-12.61v.462c0 2.618.932 3.3 4.014 3.3 2.77 0 4.461-.136 8.021-.75v5.595c-3.433.7-5.223.884-8.591.884-7.384 0-10.32-3.882-10.32-9.491v-4.594c0-4.908 2.178-8.928 9.744-8.928 7.567 0 9.743 3.973 9.743 8.928v4.594zm22.356.106c0 5.421-1.55 9.375-10.936 9.375-3.39 0-5.378-.298-9.119-.873V2L84.051.856v10.84c1.486-.552 3.408-.833 5.158-.833 6.876 0 8.021 3.083 8.021 8.036v5.59zm22.037.118c0 4.676-1.93 9.212-10.009 9.212-8.082 0-10.049-4.536-10.049-9.212V20.09c0-4.679 1.967-9.215 10.05-9.215 8.078 0 10.008 4.536 10.008 9.215v4.516zm22.023 0c0 4.676-1.933 9.212-10.01 9.212-8.082 0-10.049-4.536-10.049-9.212V20.09c0-4.679 1.967-9.215 10.05-9.215 8.076 0 10.009 4.536 10.009 9.215v4.516zm22.6 8.96h-7.452l-6.302-10.521v10.52h-6.877V2.001l6.877-1.147v20.32l6.302-9.989h7.452l-6.88 10.901 6.88 11.48zm-32.634-16.961c-2.335 0-3.146 1.276-3.146 2.866v5.8c0 1.594.81 2.875 3.146 2.875 2.333 0 3.158-1.28 3.158-2.874v-5.801c0-1.59-.825-2.866-3.158-2.866zm36.56 13.034c1.157 0 2.08.944 2.08 2.124 0 1.197-.924 2.13-2.09 2.13-1.16 0-2.1-.933-2.1-2.13 0-1.18.94-2.124 2.1-2.124h.01zm-.01.33c-.933 0-1.696.803-1.696 1.794 0 1.008.764 1.8 1.705 1.8.942.01 1.694-.792 1.694-1.79 0-1-.752-1.803-1.694-1.803h-.008zm-.395 3.03h-.377v-2.37c.198-.027.387-.055.67-.055.358 0 .592.075.736.178.14.105.214.265.214.49 0 .313-.206.501-.46.577v.018c.207.039.348.226.395.574.056.369.113.51.15.587h-.396c-.055-.077-.113-.294-.16-.606-.055-.3-.207-.414-.51-.414h-.261v1.02zm0-1.312h.274c.31 0 .573-.114.573-.407 0-.208-.15-.414-.573-.414-.124 0-.21.01-.274.018v.803z"/>
</svg>
