<svg xmlns="http://www.w3.org/2000/svg" width="130" height="43" viewBox="0 0 130 43">
    <g fill="#D5D8ED" fill-rule="nonzero">
        <path d="M15.928 0h1.15c3.99.087 7.915 1.692 10.735 4.533-1.041 1.062-2.104 2.081-3.123 3.144-1.583-1.431-3.492-2.537-5.574-2.928-3.08-.65-6.397-.065-8.978 1.692-2.82 1.843-4.728 4.966-5.14 8.306-.455 3.296.477 6.766 2.624 9.325 2.06 2.494 5.205 4.056 8.458 4.164 3.036.174 6.202-.759 8.414-2.884 1.735-1.497 2.538-3.774 2.798-5.986-3.6 0-7.2.022-10.8 0V14.9h15.16c.78 4.793-.348 10.193-3.991 13.62-2.43 2.428-5.79 3.86-9.217 4.141-3.318.326-6.745-.303-9.694-1.908-3.535-1.887-6.354-5.075-7.742-8.827-1.302-3.448-1.323-7.351-.109-10.821C2.005 7.937 4.131 5.14 6.863 3.188 9.487 1.258 12.675.195 15.928 0zM102.892 1.128h4.641v30.968c-1.54 0-3.101.022-4.64-.021.02-10.301 0-20.624 0-30.947zM41.974 11.863c2.863-.542 5.964.065 8.328 1.778 2.147 1.518 3.643 3.904 4.099 6.506.585 3.015-.152 6.31-2.104 8.696-2.104 2.668-5.552 4.1-8.913 3.882-3.08-.173-6.073-1.713-7.894-4.229-2.06-2.775-2.56-6.592-1.432-9.845 1.128-3.492 4.316-6.16 7.916-6.788m.65 4.12a5.83 5.83 0 0 0-3.036 1.93c-2.103 2.516-1.973 6.615.347 8.957 1.323 1.345 3.319 1.973 5.162 1.605 1.713-.304 3.21-1.453 4.034-2.971 1.431-2.581 1.019-6.138-1.171-8.155-1.41-1.3-3.47-1.843-5.335-1.366zM64.962 11.863c3.275-.63 6.853.282 9.304 2.58 3.99 3.579 4.424 10.28 1.019 14.4-2.06 2.603-5.4 4.034-8.696 3.882-3.145-.086-6.246-1.648-8.111-4.229-2.104-2.84-2.56-6.744-1.367-10.062 1.193-3.383 4.316-5.964 7.851-6.571m.65 4.12a5.93 5.93 0 0 0-3.036 1.909c-2.081 2.472-1.995 6.506.239 8.87 1.323 1.41 3.383 2.103 5.292 1.713 1.691-.326 3.21-1.453 4.033-2.971 1.41-2.603.998-6.16-1.214-8.176-1.41-1.301-3.47-1.822-5.313-1.345zM84.458 13.12c2.494-1.56 5.813-1.995 8.502-.65.845.369 1.54.998 2.212 1.626.021-.585 0-1.192.021-1.8 1.453.022 2.906 0 4.381.022v19.128c-.022 2.884-.759 5.942-2.84 8.046-2.278 2.32-5.77 3.036-8.914 2.559-3.362-.5-6.29-2.95-7.59-6.05 1.3-.63 2.667-1.129 4.012-1.714.759 1.778 2.298 3.296 4.229 3.643 1.93.347 4.163-.13 5.421-1.735 1.345-1.648 1.345-3.903 1.28-5.92-.998.976-2.147 1.843-3.535 2.168-3.015.846-6.333-.195-8.653-2.233-2.342-2.039-3.73-5.183-3.6-8.306.065-3.535 2.06-6.94 5.074-8.783m4.49 2.775c-1.323.217-2.56.955-3.405 1.974-2.039 2.429-2.039 6.31.022 8.696 1.17 1.41 3.057 2.19 4.879 1.996 1.713-.174 3.296-1.258 4.142-2.755 1.432-2.537 1.193-5.985-.737-8.197-1.193-1.367-3.101-2.039-4.901-1.714zM113.107 14.227c2.602-2.43 6.614-3.253 9.954-1.974 3.166 1.193 5.183 4.207 6.202 7.308-4.706 1.952-9.39 3.882-14.096 5.834.65 1.236 1.648 2.364 2.993 2.82 1.887.672 4.142.433 5.725-.825.629-.477 1.128-1.106 1.605-1.713 1.193.803 2.385 1.583 3.578 2.386-1.691 2.537-4.532 4.315-7.59 4.597-3.383.412-6.983-.889-9.174-3.535-3.6-4.163-3.253-11.147.803-14.898m2.32 4.012c-.737 1.062-1.04 2.363-1.019 3.643 3.145-1.301 6.29-2.602 9.434-3.925-.52-1.215-1.779-1.952-3.058-2.147-2.06-.369-4.207.737-5.357 2.429z"/>
    </g>
</svg>
