<svg xmlns="http://www.w3.org/2000/svg" width="54" height="54" viewBox="0 0 54 54">
    <g fill="none" fill-rule="evenodd">
        <circle cx="27" cy="27" r="27" fill="#FE9B04" opacity=".2"/>
        <g fill="#F80">
            <path d="M39.375 23.956H42.4c.608 0 1.1.49 1.1 1.094v12.856c0 .604-.492 1.094-1.1 1.094H17.1c-.608 0-1.1-.49-1.1-1.094v-5.744h21.313c1.139 0 2.062-.924 2.062-2.063v-6.143z" opacity=".5"/>
            <path d="M36.9 15.75a1.1 1.1 0 0 1 1.1 1.1v12.844a1.1 1.1 0 0 1-1.1 1.1H11.6a1.1 1.1 0 0 1-1.1-1.1V16.85a1.1 1.1 0 0 1 1.1-1.1h25.3zm-12.65 1.612c-3.341 0-6.05 2.646-6.05 5.91 0 3.264 2.709 5.91 6.05 5.91 3.341 0 6.05-2.646 6.05-5.91 0-3.264-2.709-5.91-6.05-5.91zm.627 2.149v.946c.95.204 1.383.877 1.504 1.456l-1.202.316c-.052-.265-.199-.708-.881-.708-.485 0-.727.282-.727.554 0 .23.173.41.51.486l.752.162c1.159.255 1.617.92 1.617 1.686 0 .784-.57 1.517-1.573 1.696v.928h-.994v-.911c-1.22-.196-1.772-1.082-1.833-1.78l1.193-.265c.043.494.389.937 1.132.937.433 0 .744-.204.744-.537 0-.247-.19-.408-.536-.485l-.77-.179c-.968-.23-1.564-.81-1.564-1.619 0-.954.726-1.61 1.634-1.763v-.92h.994zm-8.19-1.71h-4.125v2.052h4.126V17.8z"/>
        </g>
    </g>
</svg>
