<svg xmlns="http://www.w3.org/2000/svg" width="54" height="54" viewBox="0 0 54 54">
    <g fill="none" fill-rule="evenodd">
        <circle cx="27" cy="27" r="27" fill="#FE9B04" opacity=".2"/>
        <path fill="#F80" d="M36.241 31.5l5.81 2.479c.93.315.934 1.142 0 1.459l-12.543 5.351c-1.519.614-3.494.615-5.016 0L11.95 35.438c-.931-.315-.935-1.143 0-1.46l5.809-2.478 6.174 2.634c1.886.763 4.25.762 6.11.01L36.24 31.5z" opacity=".5"/>
        <path fill="#F80" d="M36.241 23.25l5.81 2.479c.93.315.934 1.142 0 1.459l-12.543 5.351c-1.519.614-3.494.615-5.016 0L11.95 27.188c-.931-.315-.935-1.143 0-1.46l5.809-2.478 6.174 2.634c1.886.763 4.25.762 6.11.01l6.198-2.644z" opacity=".7"/>
        <path fill="#F80" d="M24.492 13.2c1.519-.599 3.494-.6 5.016 0l12.542 5.214c.931.307.935 1.113 0 1.422l-12.542 5.215c-1.519.598-3.494.6-5.016 0L11.95 19.836c-.931-.307-.935-1.113 0-1.422l12.542-5.215z"/>
    </g>
</svg>
