<svg xmlns="http://www.w3.org/2000/svg" width="675" height="465" viewBox="0 0 675 465">
    <g fill="none" fill-rule="evenodd">
        <path fill="#CA6D3C" d="M519.745 189.74h-41.933a3.464 3.464 0 0 0-3.465 3.463v267.642a3.464 3.464 0 0 0 3.465 3.463h41.933V189.74zM671.534 189.74h-41.586a3.464 3.464 0 0 0-3.465 3.463v267.642a3.464 3.464 0 0 0 3.465 3.463h41.586a3.464 3.464 0 0 0 3.466-3.463V193.203a3.464 3.464 0 0 0-3.466-3.463z"/>
        <path fill="#4849E1" d="M586.976 219.863h37.08V276.3h-37.08z"/>
        <path fill="#2425B9" d="M633.414 219.863h-16.981V276.3h16.98z"/>
        <path fill="#CFCFF8" d="M555.093 234.751h37.081v41.55h-37.08z"/>
        <path fill="#B4B4E9" d="M601.531 234.751H584.55v41.55h16.981z"/>
        <path fill="#4AD9C5" d="M525.29 209.476h37.08V276.3h-37.08z"/>
        <path fill="#2CB3A0" d="M571.728 209.476h-16.981V276.3h16.98z"/>
        <path fill="#F0996C" d="M519.745 189.74a3.464 3.464 0 0 0-3.466 3.463v267.642a3.464 3.464 0 0 0 3.466 3.463h151.79a3.464 3.464 0 0 0 3.465-3.463V193.203a3.464 3.464 0 0 0-3.466-3.463h-151.79zm10.396 186.97h130.997v72.71H530.14v-72.71zm0-86.56h130.997v72.71H530.14v-72.71zm0-86.56h130.997v72.71H530.14v-72.71z"/>
        <path fill="#2CB3A0" d="M642.77 396.791H547.47v52.628h95.302z"/>
        <path fill="#4AD9C5" d="M642.77 396.791h-76.587v52.628h76.588z"/>
        <path fill="#169180" d="M647.622 389.174H542.617v18.004h105.005z"/>
        <path fill="#2CB3A0" d="M647.622 389.174h-81.44v18.004h81.44z"/>
        <path fill="#F6F6FF" d="M640.691 345.202h-94.608v17.658h94.608z"/>
        <path fill="#D9D9E0" d="M578.659 345.202h-32.576v17.658h32.576z"/>
        <path fill="#B4B4E9" d="M640.691 345.202h-98.074v3.462h94.609v10.733h-94.609v3.463h98.074z"/>
        <path fill="#CFCFF8" d="M640.691 345.202H578.66v3.462h58.567v10.733h-58.567v3.463h62.032z"/>
        <path fill="#F6F6FF" d="M654.553 327.543h-94.608v17.659h94.608z"/>
        <path fill="#D9D9E0" d="M592.52 327.543h-32.575v17.659h32.576z"/>
        <path fill="#3637CB" d="M654.553 327.543H556.48v3.463h94.609v10.733h-94.609v3.463h98.074z"/>
        <path fill="#F6F6FF" d="M642.424 309.885h-94.608v17.658h94.608z"/>
        <path fill="#D9D9E0" d="M580.391 309.885h-32.575v17.658h32.575z"/>
        <path fill="#D57100" d="M642.424 309.885H544.35v3.463h94.609v10.733H544.35v3.462h98.074z"/>
        <path fill="#FE9B04" d="M642.424 309.885h-62.033v3.463h58.568v10.733H580.39v3.462h62.033z"/>
        <path fill="#4849E1" d="M654.553 327.543h-62.032v3.463h58.567v10.733H592.52v3.463h62.032z"/>
        <g>
            <path fill="#0F0A57" d="M574.738 189.734l14.226-60.966 16.982 60.966z"/>
            <path fill="#CFCFF8" d="M654.455 128h-64.171a1.376 1.376 0 0 0-1.362 1.598l9.896 58.996a1.378 1.378 0 0 0 1.362 1.146h64.17a1.376 1.376 0 0 0 1.363-1.597l-9.896-58.997a1.378 1.378 0 0 0-1.362-1.146z"/>
            <path fill="#FF5711" d="M647.843 134.86h-10.682a.688.688 0 0 0-.681.8l1.788 10.632a.69.69 0 0 0 .68.573h10.683a.688.688 0 0 0 .681-.799l-1.788-10.633a.69.69 0 0 0-.68-.573z"/>
            <path fill="#EBEBFF" d="M628.565 134.86h-10.683a.688.688 0 0 0-.68.8l1.787 10.632a.69.69 0 0 0 .68.573h10.683a.688.688 0 0 0 .681-.799l-1.787-10.633a.69.69 0 0 0-.681-.573zM609.286 134.86h-10.683a.688.688 0 0 0-.68.8l1.787 10.632a.69.69 0 0 0 .681.573h10.682a.688.688 0 0 0 .681-.799l-1.787-10.633a.69.69 0 0 0-.681-.573zM651.075 153.04h-10.682a.688.688 0 0 0-.681.798l1.787 10.633a.69.69 0 0 0 .681.573h10.683a.688.688 0 0 0 .68-.799l-1.787-10.633a.69.69 0 0 0-.68-.573zM631.796 153.04h-10.682a.688.688 0 0 0-.681.798l1.788 10.633a.69.69 0 0 0 .68.573h10.683a.688.688 0 0 0 .68-.799l-1.787-10.633a.69.69 0 0 0-.68-.573zM612.518 153.04h-10.683a.688.688 0 0 0-.68.798l1.787 10.633a.69.69 0 0 0 .68.573h10.683a.688.688 0 0 0 .681-.799l-1.787-10.633a.69.69 0 0 0-.681-.573zM654.182 171.218H643.5a.688.688 0 0 0-.681.8l1.787 10.632a.69.69 0 0 0 .681.573h10.683a.688.688 0 0 0 .68-.799l-1.787-10.633a.69.69 0 0 0-.681-.573zM634.903 171.218h-10.682a.688.688 0 0 0-.681.8l1.787 10.632a.69.69 0 0 0 .681.573h10.683a.688.688 0 0 0 .68-.799l-1.787-10.633a.69.69 0 0 0-.68-.573zM615.624 171.218h-10.682a.688.688 0 0 0-.681.8l1.788 10.632a.69.69 0 0 0 .68.573h10.683a.688.688 0 0 0 .681-.799l-1.788-10.633a.69.69 0 0 0-.68-.573z"/>
        </g>
        <g>
            <path fill="#FF5711" d="M2.28 430.318h70.7l-8.08 33.397H10.36z"/>
            <path fill="#000" d="M37.045 431.602h1.752c18.983-.023 34.184-.589 34.184-1.284 0-.703-15.512-1.274-34.767-1.285h-1.751c-18.984.023-34.184.59-34.184 1.285 0 .702 15.512 1.273 34.766 1.284z"/>
            <path fill="#46AD26" d="M31.89 430.318c-1.202-14.724-4.645-25.251-10.329-31.581l2.163-1.817c7.128 9.245 10.692 20.378 10.692 33.398H31.89z"/>
            <path fill="#35841D" d="M-2.43 414.903c.41-6.118.104-11.7-.919-16.746-1.534-7.568-1.605-17.39 6.693-22.036 5.533-3.097 10.204-3.097 14.015 0 6.062-.93 9.81 1.062 11.243 5.976 2.15 7.372-.582 19.45-12.19 23.486-7.74 2.692-14.02 5.798-18.841 9.32z"/>
            <path fill="#419428" d="M17.705 376.004l-.725 2.062c-3.034 8.577-5.53 14.997-7.487 19.259-2.23 4.856-6.166 10.268-11.807 16.235l-.056.059.008-.119c.356-5.618.062-10.77-.883-15.455l-.088-.424c-1.565-7.402-1.637-17.008 6.828-21.551 5.602-3.007 10.338-3.029 14.21-.066z"/>
            <path fill="#46AD26" d="M39.211 430.318c-.61-36.79 4.219-66.335 14.487-88.633l-2.618.001c-9.777 24.906-14.903 54.45-15.378 88.632h3.509z"/>
            <path fill="#46AD26" d="M33.13 430.318v-51.153-41.334h2.518c.893 22.22 1.34 37.634 1.34 46.244v46.243H33.13z"/>
            <path fill="#419428" d="M50.66 344.383c5.231 2.339 10.517 1.128 15.856-3.631 8.01-7.14 17.79-28.124 25.747-28.124-2.153-2.813-7.134-3.684-14.943-2.613-11.714 1.607-23.423 9.052-23.423 17.363 0 8.312-2.07 9.378-4.406 11.513-1.558 1.424-1.168 3.254 1.17 5.492z"/>
            <path fill="#24710D" d="M77.32 310.013c7.525-1.028 12.423-.26 14.696 2.305l.247.299c-11.536-1.836-20.336 2.247-26.4 12.25l-.385.633c-5.894 9.641-10.832 15.893-14.817 18.754l-.115-.111c-2.235-2.178-2.587-3.965-1.055-5.36l.348-.312c2.19-1.94 4.058-3.292 4.058-11.158 0-8.281 11.71-15.699 23.423-17.3z"/>
            <path fill="#419428" d="M48.661 334.557c-5.68 5.551-13.328 7.147-22.944 4.788-14.423-3.538-26.74-33.683-14.72-47.843 12.02-14.16 21.295-20.434 19.772-30.742 2.02 4.217 5.192 8.433 9.517 12.647 6.486 6.32 19.84 21.702 19.84 35.095 0 8.928-3.822 17.613-11.465 26.055z"/>
            <path fill="#337E1C" d="M30.56 260.76c1.992 4.132 5.099 8.263 9.319 12.392l.265.258c6.533 6.322 19.982 21.707 19.982 35.103 0 8.93-3.849 17.618-11.546 26.061-3.79 3.678-8.449 5.62-13.977 5.827l-.082-1.106c-1.294-17.606-1.427-31.381-.397-41.326l.065-.616c1.196-10.86.028-22.901-3.504-36.126l-.125-.467z"/>
            <path fill="#62B947" d="M32.952 402.058c-.126-15.47-5.208-33.256-15.247-53.36l1.583-.59C28.323 365.153 33.795 379 35.702 389.65l-.799 10.015-1.95 2.392z"/>
            <path fill="#419428" d="M11.439 351.168C5.472 349.81.986 346.34-2.02 340.754l-.124-.234c-4.509-8.584-12.22-17.235-21.892-18.98-6.448-1.162-10.103-3.011-10.964-5.546 3.45 1.267 7.283 1.544 11.497.832 6.321-1.067 22.58 4.468 32.592 14.27s14.739 19.646 11.42 20.518c-2.213.582-5.236.433-9.07-.446z"/>
            <path fill="#24710D" d="M-35 315.994c3.45 1.27 7.283 1.547 11.497.834 6.321-1.07 22.58 4.476 32.592 14.297 8.39 8.231 13.07 16.492 12.41 19.465l.062-.008c-5.143.703-10.116-2.499-14.92-9.604l-.145-.217c-7.272-10.885-18.139-18.733-29.167-20.321l-.45-.066c-6.995-1.043-10.945-2.483-11.851-4.32l-.028-.06z"/>
            <path fill="#62B947" d="M36.987 431.602h3.676c6.07-27.33 12.558-46.598 19.463-57.804l-2.727.296c-4.722 9.773-8.145 18.064-10.27 24.873-2.124 6.809-5.505 17.687-10.142 32.635z"/>
            <path fill="#337E1C" d="M62.136 377.568c6.03-.386 10.938-3.025 14.726-7.918l.157-.205c5.655-7.46 14.383-14.503 23.974-14.826l.783-.02c6.173-.177 9.858-1.384 11.055-3.623-3.561.685-7.343.363-11.346-.966-6.005-1.993-22.717.819-33.985 8.679-11.269 7.86-17.388 16.57-14.282 17.915 2.07.897 5.043 1.218 8.918.964z"/>
            <path fill="#419428" d="M67.5 358.748c11.268-7.91 27.98-10.74 33.985-8.734 3.916 1.308 7.62 1.647 11.113 1.016l.233-.044c-1.94 1.353-5.44 1.691-10.498 1.015-7.567-1.012-35.752 2.813-45.713 25.65-1.322-.168-2.457-.46-3.402-.872-3.106-1.354 3.013-10.12 14.282-18.03z"/>
            <g>
                <path fill="#E68E60" d="M318.065 352.989h8.999l-5.142 111.24h-8.999zM381.568 352.989h8.999v111.24h-8.999zM443.786 352.989h8.998l7.713 111.24h-8.998z"/>
                <path fill="#4AD9C5" d="M301.097 349.135h160.685v10.277a2.57 2.57 0 0 1-2.57 2.569H301.096a2.57 2.57 0 0 1-2.571-2.57v-7.707a2.57 2.57 0 0 1 2.57-2.569z"/>
                <path fill="#2CB3A0" d="M403.936 349.135h57.846v10.277a2.57 2.57 0 0 1-2.57 2.569h-55.276v-12.846zM362.286 349.135h99.496l16.997-101.659a5.139 5.139 0 0 0-5.072-5.984h-89.07a5.14 5.14 0 0 0-5.072 4.291l-17.279 103.352z"/>
                <path fill="#4AD9C5" d="M362.286 349.135h91.784l16.996-101.659a5.139 5.139 0 0 0-5.072-5.984h-81.357a5.14 5.14 0 0 0-5.072 4.291l-17.279 103.352z"/>
            </g>
            <g>
                <path fill="#E14300" fill-rule="nonzero" d="M190.031 250.74v24.92h-13.883a4.626 4.626 0 0 1-4.628-4.624v-15.671a4.626 4.626 0 0 1 4.628-4.625h13.883zm-5.142 5.138h-8.227v14.644h8.227v-14.644z"/>
                <path fill="#FF5711" d="M184.118 245.602h26.738c1.136 0 2.057.92 2.057 2.055v31.086c0 1.135-.921 2.055-2.057 2.055h-26.738a2.056 2.056 0 0 1-2.057-2.055v-31.086c0-1.135.92-2.055 2.057-2.055z"/>
            </g>
            <g>
                <path fill="#F6F6FF" d="M222.425 267.696h70.188v13.102h-70.188z"/>
                <path fill="#D9D9E0" d="M268.446 267.696h24.167v13.102h-24.167z"/>
                <path fill="#9E62DC" d="M222.425 267.696h72.759v2.57h-70.188v7.963h70.188v2.57h-72.759z"/>
                <path fill="#BF8DF2" d="M222.425 267.696h46.02v2.57h-43.449v7.963h43.45v2.57h-46.02z"/>
            </g>
            <g>
                <path fill="#E68E60" d="M227.824 293.13h12.598v171.1h-12.598z"/>
                <path fill="#E68E60" d="M166.764 280.798h134.719a6.297 6.297 0 0 1 6.298 6.295 6.297 6.297 0 0 1-6.298 6.294h-134.72a6.297 6.297 0 0 1-6.298-6.294 6.297 6.297 0 0 1 6.299-6.295z"/>
                <path fill="#CA6D3C" d="M205.971 293.387h56.304v6.294a6.297 6.297 0 0 1-6.299 6.294H212.27a6.297 6.297 0 0 1-6.299-6.294v-6.294zM205.971 464.23h56.304v-6.295a6.297 6.297 0 0 0-6.299-6.294H212.27a6.297 6.297 0 0 0-6.299 6.294v6.294z"/>
            </g>
            <g>
                <path fill="#D5E8FF" d="M78.558 0h232.93a5.14 5.14 0 0 1 5.142 5.138v166.218a5.14 5.14 0 0 1-5.142 5.138H78.558a5.14 5.14 0 0 1-5.142-5.138V5.138A5.14 5.14 0 0 1 78.558 0z"/>
                <path fill="#FFF" d="M83.7 5.138h222.646a5.14 5.14 0 0 1 5.142 5.138v155.942a5.14 5.14 0 0 1-5.142 5.138H83.7a5.14 5.14 0 0 1-5.142-5.138V10.276A5.14 5.14 0 0 1 83.7 5.138z"/>
                <path fill="#BF8DF2" fill-rule="nonzero" d="M126.9 128.638c6.924 8.62 17.913 12.855 32.626 12.855 9.021 0 16.728-3.369 23.8-9.78l.32-.29.297-.276c4.845-4.515 8.899-9.789 15.047-18.991l4.153-6.268a374.486 374.486 0 0 1 2.52-3.752c5.941-8.72 12.023-13.122 18.4-13.22 7.3-.112 15.903 5.296 25.848 17.303l.301.365c9.288 11.307 18.029 15.231 26.541 11.77 3.635-1.477 6.984-4.238 10.308-8.233 2.627-3.156 5.223-7.047 8.202-12.142l.32-.55a305.977 305.977 0 0 0 3.602-6.408l5.044-9.231.408-.737c4.357-7.86 9.109-12.532 14.148-14.229 4.885-1.645 10.453-.613 16.917 3.366a3.858 3.858 0 0 0 5.307-1.26 3.852 3.852 0 0 0-1.262-5.303c-16.724-10.294-31.28-5.393-41.857 13.692l-.633 1.145-.95 1.731-3.424 6.28-.842 1.533c-1.191 2.161-2.17 3.9-3.13 5.555-5.975 10.297-10.58 15.83-15.064 17.653-2.243.911-4.476.855-7.052-.302-3.09-1.387-6.582-4.337-10.467-9.033l-.154-.186c-11.416-13.899-22.05-20.642-32.23-20.485-9.35.144-17.443 6.002-24.656 16.588l-.656.966-.72 1.07c-.453.676-.933 1.396-1.461 2.193l-3.076 4.649-.581.874c-6.194 9.289-10.073 14.307-14.65 18.455-5.731 5.195-11.646 7.78-18.618 7.78-12.555 0-21.311-3.374-26.61-9.971a3.858 3.858 0 0 0-5.422-.593 3.852 3.852 0 0 0-.593 5.417z"/>
                <path fill="#E5E5ED" d="M91.927 16.442h37.022c1.136 0 2.057.92 2.057 2.055v6.166c0 1.135-.92 2.055-2.057 2.055H91.927a2.056 2.056 0 0 1-2.056-2.055v-6.166c0-1.135.92-2.055 2.056-2.055zM91.927 35.453h73.016c1.136 0 2.057.92 2.057 2.055v6.166c0 1.135-.921 2.055-2.057 2.055H91.927a2.056 2.056 0 0 1-2.056-2.055v-6.166c0-1.135.92-2.055 2.056-2.055z"/>
            </g>
            <g>
                <path fill="#FFD3C7" d="M327.86 230.009l1.243-.178c5.75-.835 14.79-2.285 27.118-4.35l-3.293-22.175-23.47 4.458-22.382-35.029-.404-.634-.398-.62c-6.516-10.11-13.755-19.527-15.793-22.517l-.062-.091-.11-.166c-1.77-2.604-5.118-1.4-3.01 2.56 1.419 2.665 3.09 5.272 4.519 8.206-2.592-.036-3.336 2.556-2.384 4.291l-.117.032c-1.202.337-2.69 1.125-1.687 4.088l.123.354a1.47 1.47 0 0 0-.946.506c-1.199 1.342-.6 2.674.792 4.39l.219.267c1.566 1.88 5.888 6.708 9.41 6.337 13.713 34.461 23.923 51.218 30.632 50.27z"/>
                <path fill="#FE9B04" d="M394.845 196.037l29.306 1.234c12.93.544 23.022 11.37 22.648 24.297l-.045 1.616-.03 1.109c-.229 8.906-.343 18.636-.343 29.19l.001 1.203c.041 16.682.93 35.036 2.664 55.062 1.846 14.304 1.605 23.705-.723 28.203-5.029 9.717-21.42-17.669-37.73-17.669-16.366 0-28.504-1.554-36.413-4.664l-.238-.094a5.138 5.138 0 0 1-3.214-5.115 921.92 921.92 0 0 0 2.112-66.384c-.037-8.58-.2-17.147-.488-25.701-.4-11.912 8.938-21.893 20.858-22.294.545-.018 1.09-.016 1.635.007z"/>
                <path fill="#D57100" d="M423.312 271.078l-15.658 4.229c23.346 6.248 36.775 13.006 40.287 20.274a674.472 674.472 0 0 1-1.264-24.503l-.376-1.127-.397-1.18a848.195 848.195 0 0 0-5.41-15.46l-12.88-25.672-4.302 43.439z"/>
                <path fill="#FE9B04" d="M348.63 230.103l-7.011-27.13c24.532-4.76 42.429-7.099 53.69-7.013l-7.592 31.816-39.087 2.327z"/>
                <path fill="#FFD3C7" d="M309.87 452.064l5.81-3.814 3.647-17.146-21.623-4.593-4.675 21.976z"/>
                <path fill="#0F0A57" d="M316.519 444.304l-3.871 18.2a2.057 2.057 0 0 1-2.44 1.583l-51.532-10.946c1.11-6.706 4.897-9.793 11.358-9.262l.197.017c5.687.528 12.441-.545 17.859-2.375 1.127-.38 2.135-1.474 3.024-3.28a2.057 2.057 0 0 1 2.273-1.103l6.127 1.302c.915.194 1.58.979 1.627 1.906l.002.067c.057 3.128 1.93 5.236 5.617 6.324 4.286 1.265 7.54.454 9.759-2.433z"/>
                <path fill="#FFD3C7" d="M385.008 452.39l4.889-4.938v-5.09l-1.123-12.439h-22.38l1.139 11.561v10.906z"/>
                <path fill="#0F0A57" d="M349.031 464.08c-.148-6.009 1.5-9.804 4.947-11.385l.386-.173c3.865-1.732 8.32-4.285 9.94-7.609.287-.59.535-1.303.744-2.14a2.056 2.056 0 0 1 1.996-1.558h9.059c.967 0 1.8.673 2.008 1.61l.013.065c.534 2.833 1.875 4.539 4.023 5.118 3.813 1.029 7.753-2.306 7.753-6.793v20.8a2.057 2.057 0 0 1-2.056 2.057l-38.813.008z"/>
                <path fill="#2425B9" d="M294.525 430.862c7.769 4.677 16.65 6.204 26.645 4.583l24.6-86.31h13.424l57.695-44.327-18.557 1.606c-38.95 3.383-61.527 5.413-67.733 6.091-10.7 1.17-16.332 7.07-20.544 33.27l-.171 1.062c-2.845 17.545-7.965 45.553-15.359 84.025z"/>
                <path fill="#4849E1" d="M364.006 431.517c8.024 3.211 17.474 3.211 28.35 0l-4.477-82.382h40.273c14.028-.307 21.4-6.56 22.118-18.76 0-20.584-12.271-28.974-36.815-25.17l-3.7.488c-11.857 1.554-21.713 2.754-29.567 3.598-12.986 1.396-31.259.098-27.474 32.554l.467 3.984c2.512 21.27 6.12 49.833 10.825 85.688z"/>
                <path fill="#FFD3C7" d="M430.343 225.307l-.21 33.36-37.67 2.07-6.29 11.939 2.196.286c23.139 3.011 37.34 4.492 42.6 4.441l.94-.013 1.501-.02c11.846-.173 19.584-.955 20.884-26.937l.87-24.22-24.821-.906z"/>
                <path fill="#F3BAAA" d="M381.763 271.166c-7.938-2.781-21.404-2.548-26.587-2.552-5.183-.003-3.76-2.777-.137-2.537 3.624.24 22.963 1.298 24.57 2.308 1.608 1.009 6.5 2.698 2.154 2.781z"/>
                <path fill="#FFD3C7" d="M350.905 262.65c5.026-.617 40.335-4.497 44.502.957l.488.644c2.801 3.727-5.074 9.026-9.544 8.46-8.653-1.097-19.672-6.097-35.446-6.097-4.563 0-3.847-3.469-.492-3.906l.492-.059z"/>
                <path fill="#FFD3C7" d="M383.958 262.213c-4.798-1.724-7.77-2.81-8.913-3.259-1.716-.672-2.476-1.674-2.108-2.826.367-1.153 3.05-.828 5.197-.353 2.148.475 13.01 2.256 16.784 7.064 2.516 3.206 4.487 5.981 5.914 8.327l-16.874-8.953z"/>
                <path fill="#FE9B04" d="M456.996 250.742l-29.71-.002.256-32.26-1.86-21.097c17.408 2.34 29.678 9.665 30.624 31.304l.69 22.055z"/>
                <path fill="#FFD3C7" d="M418.461 168.718l1.119 19.83c.455 5.138 2.087 8.469 6.103 8.835-6.336 9.487-14.4 11.042-20.67 10.263-6.27-.78-12.055-3.835-9.702-11.686 2.979-.224 4.138-1.656 4.138-4.043v-20.265l19.012-2.934z"/>
                <path fill="#464646" d="M425.006 163.652c-1.065 8.105-3.394 12.851-6.987 14.239l-2.206-7.62 3.155-9.485 6.038 2.866z"/>
                <path fill="#E6B3A5" d="M418.968 178.406c-2.79 11.821-10.676 17.675-23.66 17.562l.003-.008c2.979-.224 4.138-1.656 4.138-4.043v-10.383l.585-.355a185.047 185.047 0 0 1 3.79-2.221l15.144-.552z"/>
                <path fill="#0F0F0F" d="M386.131 148.094l-5.993.289-.014.134c-.143 1.372-1.167 12.823 4.228 13.54l1.78-13.963z"/>
                <path fill="#FFD3C7" d="M402.81 138.934c10.5.366 18.746 9.182 18.378 19.705l-1.354 15.466c-.297 8.503-7.539 14.052-18.45 15.12l-.333.032c-9.381.945-17.043-3.789-17.77-16.306l-.842-15.706c-.601-11.205 9.87-18.678 20.371-18.311z"/>
                <path fill="#464646" d="M424.015 168.86l-3.647-2.123-2.324-.203c.006-5.219-1.136-8.604-3.426-10.157l.446-5.093c3.34-12.157 5.742-15.606 7.207-10.35 3.853.945 5.581 3.687 5.184 8.225l-.028.31c-.421 4.525-1.559 10.988-3.412 19.39z"/>
                <path fill="#FFD3C7" d="M419.51 172.465l.656-7.467c.186-1.64 1.516-4.194 4.798-1.716 3.35 2.529 1.207 12.66-5.453 9.183z"/>
                <path fill="#CF8570" fill-rule="nonzero" d="M395.639 167.735c-.636 1.14-1.048 2.3-1.236 3.482-.285 1.803.858 2.362 2.816 1.836a.257.257 0 1 0-.134-.496c-1.651.443-2.387.084-2.174-1.26.178-1.12.57-2.224 1.177-3.312a.257.257 0 1 0-.45-.25z"/>
                <path fill="#464646" fill-rule="nonzero" d="M401.444 157.977c2.233-.86 4.828-.756 7.8.329a.514.514 0 0 0 .353-.965c-3.192-1.166-6.039-1.28-8.523-.323a.514.514 0 1 0 .37.959zM392.847 158.232c-2.235-.737-4.533-.766-6.907-.083a.514.514 0 0 1-.285-.987c2.571-.74 5.08-.709 7.514.094a.514.514 0 1 1-.322.976z"/>
                <path fill="#050000" d="M403.377 164.923c.852.015 1.559-.893 1.579-2.028.02-1.135-.655-2.067-1.507-2.082-.852-.015-1.558.893-1.578 2.028-.02 1.135.655 2.067 1.506 2.082zM390.055 164.876c.852.015 1.559-.893 1.579-2.028.02-1.135-.655-2.067-1.507-2.082-.852-.015-1.558.893-1.578 2.028-.02 1.135.655 2.067 1.506 2.082z"/>
                <path fill="#FFF" d="M392.684 178.118l8.492-.222c.18-.004.286-.006.298-.005.083 2.298-1.16 4.216-3.956 4.16-2.796-.055-4.596-1.627-4.834-3.933z"/>
                <path fill="#464646" d="M418.968 152.021l-3.904-.737c-14.922-2.527-27.021-2.527-36.297 0-1.788-5.788-.348-11.068 4.321-15.84 7.003-7.16 34.901-8.286 39.183 5.49l-1.812 9.844-1.491 1.243z"/>
                <path fill="#D57100" d="M372.64 228.677l-.04-12.255-4.65 12.526z"/>
                <path fill="#E6B3A5" d="M329.459 207.764c1.564 2.225.743 7.932.743 7.932 1.607-3.356 2.177-6.153 1.711-8.392l-2.454.46z"/>
            </g>
            <g>
                <path fill="#FFD3C7" d="M131.286 452.391l-4.889-4.938v-17.53h22.107v22.468zM80.899 452.391l-4.89-4.938v-17.53h22.364v22.468z"/>
                <path fill="#4849E1" d="M111.777 295.513l-10.44 137.311c-4.257 1.255-8.972 1.882-14.145 1.882s-9.62-.627-13.34-1.882l-.115-92.33-2.497-101.509 14.224-.197c40.424-.57 60.637-.945 60.637-1.123-.186 0 17.864 81.46 17.864 102.835 0 14.25-3.758 45.025-11.274 92.324-3.43 1.237-8.269 1.864-14.514 1.882h-.273c-6.377 0-11.2-.627-14.469-1.882l6.304-91.166-17.962-46.145z"/>
                <path fill="#3637CB" d="M130.855 275.732c-8.57 3.378-16.477 2.575-17.739 1.822l-1.34 17.959 1.659 4.24 2.18-9.562c1.066-4.65 1.729-7.493 1.988-8.53 5.096 0 9.514-1.976 13.252-5.93z"/>
                <path fill="#FFD3C7" d="M186.432 176.988l15.166-6.226c3.574 10.356 5.026 15.533 4.358 15.533-.669 0-5.54 2.153-14.613 6.457l-4.911-15.764z"/>
                <path fill="#E6B3A5" d="M200.854 173.688l4.69 9.368.08.301c.115.441.21.832.285 1.174a61.23 61.23 0 0 1-.335 1.846l-.082.025c-1.018.321-6.265 2.67-10.146 4.458-1.452-2.855-3.636-13.311 4.001-18.353l1.507 1.181z"/>
                <path fill="#FFD3C7" d="M222.21 170.465l.584.002c4.563.035 6.442.511 6.442 2.123 0 1.68-1.902 2.688-6.193 2.688-2.86 0-5.657-.135-8.388-.404l1.34.764c.729.419 2.079 1.148 4.049 2.187 6.684 3.919 10.804 6.93 12.361 9.036 1.671 2.26 1.194 3.719-.19 3.799l-.096.003a2.515 2.515 0 0 1-.41-.03c.212.202.397.395.558.577 2.407 2.726.383 4.898-2.273 3.465.4 1.81-1.409 2.814-3.54 1.5l-.406-.266c-.896-.596-3.949-2.506-9.157-5.732l1.065.763c3.432 2.483 5.713 4.364 6.842 5.643 2.483 2.814.455 4.452-2.317 2.713l-1.184-.787c-.625-.42-2.146-1.39-4.564-2.91-4.678-2.893-8.359-4.778-11.044-5.656l-.793-.251c-4.088-1.318-7.636-3.09-8.5-6.901-.6-2.651-.6-4.728 0-6.23 1.687-3.746 4.356-6.003 8.007-6.77 5.477-1.152 12.82.674 17.807.674z"/>
                <path fill="#292560" d="M195.805 192.932c-18.798 9.151-30.265 14.562-34.401 16.231-6.204 2.504-16.162 1.629-20.17-15.265-2.672-11.262-6.117-26.195-10.335-44.799l-3.377-25.351c13.685.787 22.362 9.237 26.034 25.351 5.507 24.17 9.104 34.506 9.104 34.506l27.187-10.041c-.213 3.462.138 6.681 1.053 9.657a32.383 32.383 0 0 0 4.905 9.711z"/>
                <path fill="#0F0C39" d="M145.792 141.964l6.812 67.721c-4.533-1.392-8.996-5.778-11.37-15.787l-.76-3.209c-.486-2.064-.996-4.238-1.528-6.522l6.846-42.203z"/>
                <path fill="#292560" d="M123.413 123.488l-31.136 1.31c-12.93.545-23.022 11.372-22.648 24.298l.046 1.615c.248 9.206.373 19.306.373 30.3l-.004 4.635c-.022 16.039-.161 33.582-.416 52.628a5.138 5.138 0 0 0 3.082 4.777c7.265 3.173 19.164 4.759 35.696 4.759 16.367 0 28.505-1.555 36.414-4.664l.238-.094a5.138 5.138 0 0 0 3.213-5.116 922.09 922.09 0 0 1-2.116-64.973l.005-1.41c.039-9.012-.044-18.01-.247-26.993-.27-11.915-10.155-21.355-22.08-21.086-.14.003-.28.008-.42.014z"/>
                <path fill="#0F0C39" d="M70.086 188.952l-.187 19.983 1.341 34.05 10.715-5.32v-76.442z"/>
                <path fill="#FFD3C7" d="M78.49 233.27c1.317 3.747 5.783 6.207 7.546 7.165 1.73.94 3.573 2.258 5.533 3.956 1.288 1.188 3.622 4.085 2.841 4.953-.767.853-1.907.566-3.188-.636l-.18-.17c-1.308-1.226-3.227-2.493-4.37-1.457-.824.748-.063 2.435 1.012 4.136l2.145 2.692c2.165 2.704 3.647 4.513 4.445 5.426 2.07 2.365-.335 4.736-2.882 2.139l-.348-.359c-1.527-1.585-3.886-4.2-7.076-7.842l-.119.113 4.494 6.06c2.1 2.845 3.436 4.673 4.005 5.487 1.47 2.102-.257 4.86-3.135 1.498l-1.413-1.644a1800.801 1800.801 0 0 0-7.202-8.282l-.029.027 1.292 1.882c2.378 3.478 3.718 5.52 4.018 6.124l.157.333c.404.868.693 1.685-.532 2.45-1.343.84-2.383-.875-3.355-2.228l-4.051-5.593 1.316 3.097c.552 1.31.897 2.15 1.036 2.521l.01.028c.32.867.093 1.814-1.172 2.03-.837.142-2.121-1.606-3.075-3.466-1.163-1.994-1.92-3.968-2.269-5.922l-.034-.196c-.423-2.563-3.926-10.116-7.285-16.354l11.866-7.967z"/>
                <path fill="#292560" d="M81.413 234.39l-13.695-39.945 14.237-33.222 4.53-35.488c-12.658 4.063-21.589 11.863-26.792 23.4-5.203 11.538-9.599 21.827-13.188 30.865-3.266 8.028-3.266 16.364 0 25.008 3.266 8.645 9.636 21.83 19.11 39.56 2.037-2.207 4.61-4.35 7.718-6.426 3.108-2.077 5.802-3.327 8.08-3.752z"/>
                <path fill="#0F0A57" d="M126.397 443.42v18.605c0 1.135.92 2.055 2.057 2.055h52.683c.31-6.79-2.752-10.596-9.183-11.42l-.196-.023c-5.672-.665-12.055-3.119-16.974-6.034-1.023-.606-1.782-1.885-2.276-3.836a2.056 2.056 0 0 0-1.994-1.551h-6.263c-.935 0-1.75.63-1.988 1.527l-.016.064c-.707 3.048-2.977 4.721-6.81 5.02-4.456.346-7.47-1.123-9.04-4.408z"/>
                <path fill="#FFD3C7" d="M99.164 96.002l-1.119 19.83c-.455 5.139-2.073 8.568-6.103 8.835 6.336 9.487 14.4 11.042 20.67 10.263 6.27-.779 12.077-3.567 9.724-11.419-2.98-.224-4.16-1.922-4.16-4.31V98.937l-19.012-2.935z"/>
                <path fill="#7C3A3A" d="M94.038 86.336l-3.302-9.944c.816 15.447 3.472 25.306 7.965 29.578l.17-11.942-4.833-7.692z"/>
                <path fill="#E6B3A5" d="M100.754 105.826c3.78 12.543 10.768 18.576 21.582 17.685l-.004-.011c-2.596-.075-3.976-1.835-4.143-4.217v-5.825l-1.266-4.512a165.82 165.82 0 0 0-4.003-2.286l-12.166-.834z"/>
                <path fill="#430A0A" d="M134.223 88.81c3.54-3.333 4.876-8.262 4.006-14.787l-8.527 1.251 4.52 13.537z"/>
                <path fill="#FFD3C7" d="M115.527 66.187c-10.506.183-18.904 8.853-18.72 19.382l1.084 15.487c.15 8.593 8.373 15.653 18.515 15.477 8.987-.157 17.107-3.491 18.052-15.994l1.117-15.688c.797-11.193-9.542-18.848-20.048-18.664z"/>
                <path fill="#FFF" d="M122.936 106.364c1.716.298 2.574 1.028 2.574 2.19 0 1.744-1.018 2.315-3.174 2.315-2.156 0-4.382 1.343-4.559-1.908-.118-2.168 1.602-3.033 5.16-2.597z"/>
                <path fill="#7C3A3A" d="M93.803 95.738l3.683-2.059 2.327-.162c.085-5.218 1.286-8.583 3.603-10.095l-.357-5.1c21.39 2.527 33.525-.324 36.407-8.552 4.323-12.341-16.154-13.314-21.577-12.935-5.422.378-19.52 3.167-21.855 11.012-3.83.87-5.61 3.535-5.336 7.998l.01.136.022.31c.342 4.531 1.366 11.014 3.073 19.447z"/>
                <path fill="#FFD3C7" d="M98.243 99.421l-.516-7.377-.008-.1c-.158-1.642-1.443-4.22-4.768-1.8-3.393 2.47-1.428 12.639 5.292 9.277z"/>
                <path fill="#7C3A3A" d="M119.84 79.14l.083-.001c1.688-.01 20.38.251 23.5-5.479 3.185-5.846-3.972-7.166-11.216-7.398-7.243-.232-12.366 12.878-12.366 12.878z"/>
                <path fill="#E6B3A5" fill-rule="nonzero" d="M123.39 96.456c.533 1.191.843 2.384.926 3.577.128 1.821-1.06 2.278-2.965 1.584a.257.257 0 1 1 .176-.483l.153.054.148.049c1.401.44 2.064.101 1.975-1.168-.079-1.132-.373-2.265-.883-3.403a.257.257 0 1 1 .47-.21z"/>
                <path fill="#5A2828" fill-rule="nonzero" d="M117.814 87.071c-2.218-.898-4.814-.84-7.804.193a.514.514 0 0 1-.336-.971c3.211-1.11 6.06-1.174 8.527-.174a.514.514 0 1 1-.387.952zM125.437 86.61c2.208-.814 4.503-.923 6.9-.323a.514.514 0 0 0 .25-.997c-2.595-.65-5.102-.531-7.506.356a.514.514 0 1 0 .356.964z"/>
                <path fill="#050000" d="M115.76 93.983c-.852 0-1.543-.92-1.543-2.056 0-1.135.69-2.055 1.542-2.055.852 0 1.543.92 1.543 2.055 0 1.136-.69 2.056-1.543 2.056zM128.07 93.122c-.852 0-1.543-.92-1.543-2.055 0-1.135.691-2.055 1.543-2.055s1.543.92 1.543 2.055c0 1.135-.691 2.055-1.543 2.055z"/>
                <path fill="#0F0A57" d="M116.875 464.08c.148-6.008-1.5-9.803-4.946-11.385l-.387-.172c-3.865-1.732-8.32-4.285-9.94-7.61-.286-.588-.535-1.302-.744-2.14a2.056 2.056 0 0 0-1.995-1.557h-9.06c-.989 0-1.838.703-2.02 1.675-.535 2.833-1.875 4.539-4.023 5.118-3.814 1.028-7.754-2.306-7.754-6.793v20.8c0 1.136.921 2.056 2.057 2.056l38.812.008z"/>
            </g>
        </g>
        <g transform="translate(477 64)">
            <path fill="#E68E60" d="M0 0h78v86H0z"/>
            <path fill="#EBF4FF" d="M5.2 5.134h66.3v74.448H5.2z"/>
            <ellipse cx="32.5" cy="21.821" fill="#FE9B04" rx="6.5" ry="6.418"/>
            <path fill="#2CB3A0" d="M18.2 80.866l31.243-34.657L71.5 65.261v15.605z"/>
            <path fill="#4AD9C5" d="M5.2 80.866l24.7-25.672 24.7 25.672z"/>
        </g>
        <g>
            <path fill="#E68E60" d="M377 0h78v86h-78z"/>
            <path fill="#FFF" d="M382.2 5.134h66.3v74.448h-66.3z"/>
            <path fill="#FE9B04" d="M438.1 59.045c2.872 0 5.2 2.347 5.2 5.243a5.25 5.25 0 0 1-2.015 4.145l2.015 5.019-5.2 2.28-5.2-2.28 2.015-5.02a5.25 5.25 0 0 1-2.015-4.144c0-2.896 2.328-5.243 5.2-5.243z"/>
            <path fill="#E5E5ED" d="M388.7 11.552h35.1v3.851h-35.1zM387.4 20.537h55.9v3.851h-55.9zM388.7 29.522h23.4v3.851h-23.4zM387.4 39.791h46.8v3.85h-46.8zM387.4 48.776h55.9v3.85h-55.9zM387.4 59.045h29.9v3.85h-29.9z"/>
        </g>
    </g>
</svg>
