<svg xmlns="http://www.w3.org/2000/svg" width="544" height="405" viewBox="0 0 544 405">
    <defs>
        <linearGradient id="a" x1="53.791%" x2="53.791%" y1="-21.856%" y2="102.834%">
            <stop offset="0%" stop-color="#F0F2FF"/>
            <stop offset="100%" stop-color="#BECBFF"/>
        </linearGradient>
    </defs>
    <g fill="none" fill-rule="evenodd">
        <path fill="url(#a)" d="M362.029 40.138L114.055 50.21C53.052 52.687 5.608 104.148 8.085 165.151a110.546 110.546 0 0 0 16.67 54.035l30.736 49.256c28.459 45.608 40.517 60.385 56.266 75.07 15.748 14.686 32.864 25.558 52.85 33.572l1.198.477c19.543 7.723 38.357 12.3 90.67 18.548l61.544 7.352c36.863 4.404 71.71-.68 102.306-13.507 30.597-12.828 56.944-33.4 76.809-59.971 19.865-26.573 33.247-59.146 37.915-95.977l.6-4.733c11.676-92.12-53.537-176.263-145.657-187.939a168.132 168.132 0 0 0-27.963-1.196z" opacity=".5" transform="translate(0 -.011)"/>
        <path fill="#E68E60" d="M309.269 277.119h8.413l-4.807 104.129h-8.414zM368.643 277.119h8.413v104.129h-8.413zM426.815 277.119h8.413l7.212 104.129h-8.414z"/>
        <path fill="#4AD9C5" d="M293.404 273.512H443.64v9.619a2.404 2.404 0 0 1-2.403 2.405H293.404A2.404 2.404 0 0 1 291 283.13v-7.214a2.404 2.404 0 0 1 2.404-2.405z"/>
        <path fill="#2CB3A0" d="M389.556 273.512h54.085v9.619a2.404 2.404 0 0 1-2.403 2.405h-51.682v-12.024z"/>
        <path fill="#2CB3A0" d="M350.614 273.512h93.027l15.892-95.16a4.81 4.81 0 0 0-4.742-5.602h-83.279a4.808 4.808 0 0 0-4.742 4.017l-16.156 96.745z"/>
        <path fill="#4AD9C5" d="M350.614 273.512h85.816l15.891-95.16a4.81 4.81 0 0 0-4.742-5.602h-76.067a4.808 4.808 0 0 0-4.742 4.017l-16.156 96.745z"/>
        <path fill="#D5E8FF" d="M198.278 1h179.04a4.03 4.03 0 0 1 4.028 4.032v105.389a4.03 4.03 0 0 1-4.028 4.032h-179.04a4.03 4.03 0 0 1-4.028-4.032V5.032A4.03 4.03 0 0 1 198.278 1z"/>
        <path fill="#FFF" d="M203.073 5.8h169.45a4.03 4.03 0 0 1 4.028 4.032v95.789a4.03 4.03 0 0 1-4.028 4.032h-169.45a4.03 4.03 0 0 1-4.028-4.032V9.832a4.03 4.03 0 0 1 4.028-4.032z"/>
        <path fill="#E5E5ED" d="M326.152 24.77h17.723a2.015 2.015 0 0 1 0 4.032h-17.723a2.015 2.015 0 0 1 0-4.032zM326.152 52.187h17.723a2.015 2.015 0 0 1 0 4.032h-17.723a2.015 2.015 0 0 1 0-4.032zM326.152 32.834h32.224a2.015 2.015 0 0 1 0 4.032h-32.224a2.015 2.015 0 0 1 0-4.032zM326.152 60.251h32.224a2.015 2.015 0 0 1 0 4.032h-32.224a2.015 2.015 0 0 1 0-4.032z"/>
        <path fill="#4AD9C5" d="M303.997 23.56h10.473c.89 0 1.611.722 1.611 1.613v10.483c0 .89-.721 1.613-1.611 1.613h-10.473c-.89 0-1.611-.722-1.611-1.613V25.173c0-.89.721-1.613 1.61-1.613z"/>
        <path fill="#FF5711" d="M303.997 50.978h10.473c.89 0 1.611.722 1.611 1.612v10.484c0 .89-.721 1.612-1.611 1.612h-10.473c-.89 0-1.611-.722-1.611-1.612V52.59c0-.89.721-1.612 1.61-1.612z"/>
        <path fill="#E5E5ED" d="M326.152 79.605h17.723a2.015 2.015 0 0 1 0 4.032h-17.723a2.015 2.015 0 0 1 0-4.032zM326.152 87.669h32.224a2.015 2.015 0 0 1 0 4.032h-32.224a2.015 2.015 0 0 1 0-4.032z"/>
        <path fill="#BF8DF2" d="M303.997 78.395h10.473c.89 0 1.611.722 1.611 1.613v10.483c0 .89-.721 1.613-1.611 1.613h-10.473c-.89 0-1.611-.722-1.611-1.613V80.008c0-.89.721-1.613 1.61-1.613z"/>
        <path fill="#4AD9C5" fill-rule="nonzero" d="M246.116 95.953c21.098 0 38.2-17.119 38.2-38.236 0-21.118-17.102-38.237-38.2-38.237-21.097 0-38.2 17.12-38.2 38.237s17.103 38.236 38.2 38.236zm0-18.728c-10.763 0-19.49-8.734-19.49-19.508 0-10.775 8.727-19.509 19.49-19.509 10.764 0 19.49 8.734 19.49 19.509 0 10.774-8.726 19.508-19.49 19.508z"/>
        <path fill="#BF8DF2" fill-rule="nonzero" d="M246.116 95.953c21.098 0 38.2-17.119 38.2-38.236h-18.71c0 10.774-8.726 19.508-19.49 19.508v18.728z"/>
        <path fill="#FF5711" fill-rule="nonzero" d="M219.178 30.606a38.158 38.158 0 0 0-11.261 27.11c0 21.118 17.102 38.237 38.2 38.237V77.225c-10.764 0-19.49-8.734-19.49-19.508a19.425 19.425 0 0 1 5.746-13.832l-13.195-13.279z"/>
        <g>
            <path fill="#7C3A3A" d="M376.532 72.812l4.239 79.644-29.642-7.068.092-.117c.948-1.206 8.845-11.698 8.733-26.194-.119-15.422-6.832-41.54 16.578-46.265zM412.019 168.11c10.45-11.39 12.36-22.233 5.729-32.532l-.586-.912c-9.406-14.662-10.515-17.85-9.864-33.389l-13.628-8.72-8.659 26.652 27.008 48.9z"/>
            <path fill="#FFD3C7" d="M297.91 368.305c-1.014-.403-1.047-1.357-.1-2.864.946-1.506 2.051-2.761 3.315-3.767l1.013-1.354c5.126-6.859 8.546-11.608 10.259-14.249l.055-.084c1.802-2.79 3.495-7.914 5.077-15.371l15.859 6.306-3.467 14.287c-1.863 6.643-4.252 11.301-7.166 13.975l-.493.446c-4.225 3.847-7.217 7.296-13.372 6.862-4.23-.298-7.89-1.694-10.98-4.187z"/>
            <path fill="#524D97" d="M291.766 372.635c-.186 4.523 3.129 7.136 9.944 7.838 10.12 1.042 16.163-3.656 19.722-8.205l.32-.412c3.45-4.416 7.138-7.941 7.957-9.857l.024-.058c.783-1.941 1.538-5.175.188-10.732-4.532 11.012-9.33 17.991-14.397 20.938-5.066 2.947-12.985 3.11-23.758.488z"/>
            <path fill="#FFD3C7" d="M363.58 325.443l9.098 14.247-10.403 14.59-14.817 4.689 4.018-6.47c2.21-3.676 2.145-7.307-.196-10.893-2.341-3.586 1.76-8.973 12.3-16.163z"/>
            <path fill="#524D97" d="M375.399 346.516l3.479.986 1.32 2.045c.478.742.3 1.73-.408 2.256l-36.393 27.094a1.67 1.67 0 0 1-2.412-.45l-1.004-1.594.602-2.003 34.816-28.334z"/>
            <path fill="#0F0A57" d="M370.955 338.567c-1.85 4.24-5.793 8.67-11.831 13.29-9.057 6.933-9.035 2.712-7.61.594l-.488.594-.483.591-.32.395-.47.584c-4.237 5.281-7.133 9.482-8.687 12.601l-.11.223-.152.315-.214.447c-2.236 4.725-2.345 6.322-.61 8.652l38.898-29.351-4.085-5.974-1.4-2.026c-.28-.403-.49-.703-.632-.898-.63-.876-1.233-.888-1.806-.037z"/>
            <path fill="#3B3CD3" d="M349.598 343.375c7.759-2.564 14.418-6.637 19.977-12.219l-29-58.776 37.676-38.826h-50.334c-28.107.351-32.334 17.33-12.681 50.935l19.077 32.64c8.19 14.025 13.285 22.774 15.285 26.246z"/>
            <path fill="#0F0A57" d="M301.125 361.674c-1.83 2.396-1.766 4.243.193 5.542 2.938 1.95 13.137 5.09 18.3-.64 3.442-3.82 6.876-8.942 10.303-15.367l.06.347c.583 3.436.466 5.963-.352 7.58-1.268 2.507-6.658 8.359-12.35 14.152-5.693 5.792-16.482 6.17-21.998 3.295-5.516-2.874-3.534-6.067-.922-9.123 1.742-2.038 3.997-3.966 6.766-5.786z"/>
            <path fill="#4849E1" d="M312.204 339.647c5.932 3.944 13.48 5.916 22.646 5.916l23.57-70.26h34.06c23.445 0 39.106-20.332 29.393-41.258l-63.454-.49c-15.53 1.327-25.91 15.518-31.138 42.572l-.314 1.616c-5.116 26.282-10.037 46.917-14.763 61.904z"/>
            <path fill="#FFD3C7" d="M311.127 101.914l-.063-.455c-.304-2.847 3.685-4.06 3.887-2.905l.433 2.76.06.326c.49 2.623 1.51 6.796 2.599 9.171l.123.265c1.219 2.578 2.17 5.494 2.853 8.746 1.558 8.856 12.086 42.154 17.078 53.709l12.49-16.2 11.445 16.2-1.426.772c-12.473 23.834-32.83 29.108-37.166 12.87l-.186-.705-.15-.58c-1.681-6.579-7.042-31.21-13.3-58.735l-.215-.007-.236-.005c-1.479-.028-4.951.283-7.5.47a1.856 1.856 0 0 1-1.874-1.535 1.728 1.728 0 0 1 1.214-1.956l.056-.016.653-.225-1.038.052a2.24 2.24 0 0 1-2.318-1.849 2.257 2.257 0 0 1 1.484-2.522l.06-.02.993-.313-1.213.112c-1.202.102-1.924-.666-2.106-1.7-.183-1.043.477-1.822 1.481-2.142l.06-.018 1.451-.415-.586.024a2.27 2.27 0 0 1-2.275-2.158c-.06-1.19.845-2.12 2.02-2.27l8.653-1.035 1.156-.204c1.777-.302 2.385-1.93 1.403-7.507z"/>
            <path fill="#FE9B04" d="M372.642 134.226c-2.248 0-19.233 2.036-29.78 22.99l-5.749 11.467-12.508-40.71c-6.693.494-11.944 1.798-15.754 3.913 5.17 27.13 8.674 43.961 10.51 50.492 2.756 9.797 11.723 32.382 37.139 0l8.964-26.664c4.785-14.279 7.178-21.442 7.178-21.488z"/>
            <path fill="#D57100" d="M357.041 148.243l7.019 11.647-7.56 22.488c-4.696 5.983-8.83 10.09-12.468 12.747l13.01-46.882z"/>
            <path fill="#FE9B04" d="M376.203 134.355l26.588 2.056c12.002.928 21.028 11.358 20.249 23.398l-.257 4.001-.272 4.31c-.424 6.746-.862 13.965-1.316 21.658-.467 13.414-2.649 27.642 1.71 42.837l.158.54c.291 1.047 2.09 8.242 1.736 15.044-12.935-14.522-70.199-14.61-70.199-14.522 2.207-23.354.64-47.402.64-53.132a820.177 820.177 0 0 0-.64-25.324c-.443-11.103 8.178-20.465 19.256-20.91a20.247 20.247 0 0 1 2.347.044z"/>
            <path fill="#D57100" d="M405.204 183.649l.779-24.777 15.858 20.12-.228 3.776c-.138 2.292-.277 4.628-.418 7.01-.248 7.127-.98 14.484-.958 22.094l-51.2-10.415-.437-6.697-1.771-2.492 1.094-5.643 37.281-2.976z"/>
            <path fill="#E6B3A5" d="M362.119 196.058c-2.81-1.618-4.83-2.474-6.061-2.57-1.847-.144-8.947 2.71-10.365 3.197-1.419.487-2.42.305-2.42-.805 0-.74 4.262-2.499 12.785-5.278l6.06 5.456z"/>
            <path fill="#FFD3C7" d="M380.904 194.627l-8.135-4.923c-4.974-.481-12.617-3.429-14.695-3.429-3.1 0-12.397 4.418-16.398 6.385-4.001 1.967-1.712 4.66 1.697 3.398l.436-.131c4.73-1.434 9.635-3.147 11.236-3.566 2.094-.579 7.074 3.697 7.074 3.697h-8.9a2.041 2.041 0 0 0-2.038 2.043c0 1.184.867 2.187 2.035 2.356 4.61.666 8.834 1 12.672 1 4.396 0 12.842-2.277 15.016-6.83z"/>
            <path fill="#FE9B04" d="M402.352 136.262c17.684.48 23.88 9.991 24.883 14.951l.04.227c.453 2.563 1.24 8.964 2.364 19.204l2.685 20.604c1.084 8.656-3.111 12.984-12.587 12.984l-.79-.042c-8.673-.47-31.682-1.38-49.91-2.733-.89-5.426-.905-10.055-.043-13.886l.044-.188 41.05-1.249-.001-.02-.009.007-7.726-49.86z"/>
            <path fill="#FFD3C7" d="M396.573 109.317l.396 18.513.017.287c.296 4.646 1.706 7.772 5.366 8.145-.309 8.859-2.781 16.194-16.781 16.194-14 0-14.552-12.925-12.93-18.232 4.284-.113 5.417-1.652 5.515-3.842l.66-18.95 17.757-2.115z"/>
            <path fill="#E6B3A5" d="M396.674 114.037l.02.916-.074.3c-3.23 12.781-11.222 19.105-23.978 18.97 2.774-.111 5.439-1.682 5.516-3.907l.336-9.661.602-.338a205.356 205.356 0 0 1 3.547-1.934l14.031-4.346z"/>
            <path fill="#FFD3C7" d="M381.99 79.877c9.753.512 17.273 8.865 16.76 18.67l-1.51 14.395c-.418 8.002-11.648 13.835-19.907 13.835-5.103 0-13.573-3.825-14.045-15.505l-.529-14.655c-.377-10.456 9.477-17.253 19.23-16.74z"/>
            <path fill="#CF8570" fill-rule="nonzero" d="M380.648 117.382l-.098.045-.03.013a7.372 7.372 0 0 1-.377.152c-.41.153-.869.29-1.365.396-1.413.3-2.837.29-4.182-.155a.24.24 0 0 0-.15.455c1.434.474 2.942.485 4.432.168a10.162 10.162 0 0 0 1.762-.546l.162-.071.057-.027a.24.24 0 0 0-.211-.43zM375.744 106.869c-.535 1.092-.86 2.193-.977 3.302-.178 1.693.911 2.158 2.703 1.573a.24.24 0 0 0-.148-.455c-1.512.493-2.212.194-2.08-1.068.11-1.051.42-2.098.931-3.141a.239.239 0 1 0-.43-.211z"/>
            <path fill="#5A2828" fill-rule="nonzero" d="M380.973 96.745c2.168-.504 4.542-.072 7.138 1.316a.48.48 0 0 0 .45-.845c-2.788-1.49-5.393-1.965-7.804-1.404a.48.48 0 0 0 .216.933zM373.967 95.973c-2.09-.651-4.225-.64-6.42.035a.48.48 0 0 1-.28-.916c2.376-.731 4.709-.743 6.984-.034a.48.48 0 0 1-.284.915z"/>
            <path fill="#050000" d="M382.912 104.812c.792.028 1.463-.807 1.5-1.865.037-1.058-.575-1.938-1.366-1.965-.792-.028-1.463.807-1.5 1.865-.037 1.057.575 1.937 1.366 1.965zM371.504 103.61c.791.028 1.463-.807 1.5-1.865.037-1.058-.575-1.937-1.367-1.965-.791-.028-1.463.807-1.5 1.865-.036 1.058.575 1.937 1.367 1.965z"/>
            <path fill="#7C3A3A" d="M397.666 103.936l-.791 3.048c-1.045-1.447-1.49-2.916-1.333-4.405l.628-5.997c-11.426-1.872-18.845-6.108-22.255-12.706-6.95 2.655-10.656 6.285-11.115 10.89-.313-14.61 5.85-22.11 18.485-22.5 18.955-.585 27.453 15.279 26.013 29.011l-9.632 2.659z"/>
            <path fill="#FFD3C7" d="M396.729 111.382l.72-6.857.01-.093c.2-1.525 1.477-3.885 4.487-1.521 3.072 2.411.917 11.822-5.217 8.471z"/>
            <path fill="#E6B3A5" d="M309.124 112.415c.054.34.02.632-.104.878l-.005-.002c-.206.488-.603.791-1.19.91.692-.057 1.236.103 1.631.482.324.267.53.677.617 1.23.06.371.046.7-.039.986l-.023.07c-.212.682-.668 1.105-1.367 1.27.77.195 1.213.798 1.33 1.808.041.872-.112 1.462-.46 1.77-.417.417-1.072.699-1.959.974.661-.062 1.074.183 1.327.44l.028.03c.218.211.356.502.415.872.042.265.032.501-.03.71-.147.553-.626.932-1.437 1.136l-.152.037c-.86.199-2.174.37-3.94.51l1.072-.19.753-.14c1.098-.206 1.788-.357 2.072-.452a1.814 1.814 0 0 0 .69-.395c.166-.156.265-.32.323-.457.09-.219.112-.466.069-.74a1.526 1.526 0 0 0-.12-.377c-.487-.706-1.925-.913-4.345-.645l.198-.046.21-.046a37.479 37.479 0 0 1 1.853-.334c.482-.077.909-.196 1.282-.359 1.195-.596 1.727-1.312 1.595-2.149-.124-.782-.588-1.197-1.075-1.412-.393-.136-.891-.168-1.495-.094l-.987.118c-1.097.13-2 .23-2.711.303l1.196-.243c2.069-.428 3.319-.73 3.75-.903 1.038-.537 1.493-1.208 1.366-2.014a1.383 1.383 0 0 0-.17-.487l-.007.001a1.62 1.62 0 0 0-.095-.15c-.388-.496-1.092-.678-1.653-.735a5.174 5.174 0 0 0-.79.036c-1.292.151-2.71.263-4.255.335l1.902-.326c1.62-.282 2.53-.454 2.731-.516l.296-.092c.864-.328 1.239-.856 1.124-1.584-.22-1.389-1.972-1.232-2.276-1.184 1.721-.377 2.673.012 2.855 1.166z"/>
        </g>
        <g>
            <path fill="#AEAECA" d="M284.788 195.393H400.5v4.357H284.788z"/>
            <path fill="#D9D9E0" d="M275.014 146.5h79.749c1.205 0 2.225.894 2.388 2.093l6.948 51.157h-84.614l-6.86-50.503a2.419 2.419 0 0 1 2.39-2.747z"/>
            <path fill="#FFF" d="M319.314 179.418c-3.797 0-7.439-3.088-8.134-6.898-.695-3.81 1.819-6.898 5.616-6.898 3.797 0 7.44 3.088 8.135 6.898.695 3.81-1.82 6.898-5.617 6.898z"/>
        </g>
        <g>
            <path fill="#F7BDAD" d="M181.442 186.878c-.048 2.663-1.422 5.522-4.121 8.577l-.126.14c-2.782 3.109-2.72 4.586.184 4.432 2.86-2.414 4.593-5.043 5.198-7.888.605-2.844.227-4.598-1.135-5.26z"/>
            <path fill="#FFD3C7" d="M176.223 177.98c.847 4.656.434 8.521-1.24 11.595l-.07.129c-2.6 4.641 1.28 5.465 3.392 2.362 2.113-3.103 1.915-4.67 2.175-5.518.26-.849 2.511.982.95 4.945-1.56 3.963-4.476 6.923-5.664 8.815-1.188 1.893 1.228 4.077 4.152 1.57 2.924-2.506 4.695-4.967 7.06-9.611 1.576-3.097 1.992-8.366 1.248-15.808l-12.003 1.52z"/>
            <path fill="#4849E1" d="M160.396 61.74c15.248.89 23.323 10.325 24.228 28.307.71 14.77 1.255 25.588 1.633 32.454l3.391 54.003c-6.173 3.786-13.242 5.906-21.208 6.359l-3.436-53.696-4.608-67.426z"/>
            <path fill="#2425B9" d="M179.462 82.046l-14.942 28.592 13.877 70.669a42.779 42.779 0 0 0 7.522-2.77l-3.714-40.94-2.743-55.55z"/>
            <path fill="#FFD3C7" d="M167.084 370.085l-4.575-4.62v-16.402h20.686v21.022zM119.937 370.085l-4.575-4.62v-16.402h20.926v21.022z"/>
            <path fill="#FF5711" d="M148.83 223.3l-9.77 128.477c-3.983 1.174-8.395 1.76-13.235 1.76s-9.001-.586-12.482-1.76l-.108-86.39-2.25-96.57c48.265.402 72.398.51 72.398.326-.175 0 4.656 76.249 4.656 96.249 0 13.333-.309 42.128-.926 86.385-3.257 1.174-7.869 1.76-13.836 1.76-5.968 0-10.48-.586-13.54-1.76l-3.723-85.3-7.185-43.178z"/>
            <path fill="#E14300" d="M157.632 194.818c-1.281 1.594-5.591 2.299-6.772 1.594l-2.03 26.887 1.09 6.538 7.712-35.019z"/>
            <path fill="#0F0A57" d="M162.51 361.69v17.41c0 1.062.861 1.923 1.924 1.923h49.296c.29-6.354-2.575-9.916-8.592-10.685l-.184-.023c-5.307-.622-11.28-2.918-15.883-5.645-.957-.568-1.667-1.764-2.13-3.59a1.924 1.924 0 0 0-1.865-1.451h-5.861c-.875 0-1.637.589-1.86 1.428l-.015.06c-.661 2.853-2.786 4.418-6.373 4.697-4.169.325-6.988-1.05-8.458-4.123zM153.6 381.023c.14-5.68-1.436-9.245-4.727-10.697-3.675-1.622-8.01-4.05-9.564-7.237-.268-.551-.5-1.22-.696-2.003a1.924 1.924 0 0 0-1.868-1.457h-8.476c-.926 0-1.72.658-1.891 1.567-.5 2.65-1.755 4.247-3.764 4.789-3.569.962-7.256-2.158-7.256-6.356v19.462c0 1.062.862 1.923 1.925 1.924l36.317.008z"/>
            <path fill="#4849E1" d="M158.424 61.804l-27.437 1.31c-12.099.509-21.526 10.483-21.176 22.578l.042 1.512.027 1.037c.215 8.334.322 17.438.322 27.313l-.002 2.077c-.005 15.777.784 43.02.784 51.186 0 7.451 19.85 9.238 35.11 9.238 15.315 0 26.672-1.454 34.072-4.363l.223-.089c1.934-.776 3.23-2.726 3.007-4.786l-.297-2.771c-2.31-21.707-3.685-38.02-3.63-57.58l.002-.62c.035-8.028-.27-17.186 0-25.19.375-11.145-8.363-20.484-19.517-20.859-.51-.017-1.02-.015-1.53.007z"/>
            <path fill="#2425B9" d="M121.97 97.155l-11.82 6.834.013 1.498c.026 3.262.04 6.617.04 10.067l-.003 2.077c-.005 15.777.784 43.02.784 51.186 0 3.571 4.559 5.841 10.986 7.237V97.155z"/>
            <path fill="#FFD3C7" d="M118.73 164.568c1.23 3.505 5.41 5.807 7.06 6.703 1.617.879 3.343 2.113 5.176 3.702l.09.084c1.22 1.159 3.281 3.757 2.569 4.55-.718.798-1.785.53-2.984-.595l-.168-.16-.162-.15c-1.216-1.095-2.904-2.14-3.926-1.213-.772.7-.06 2.279.946 3.87l2.008 2.52 1.007 1.254c1.485 1.844 2.536 3.118 3.152 3.822 1.936 2.213-.314 4.431-2.698 2.001l-.325-.335c-1.43-1.483-3.636-3.93-6.621-7.338l-.111.106 4.205 5.67 1.847 2.51a173.01 173.01 0 0 1 1.9 2.625c1.376 1.966-.24 4.547-2.934 1.4l-1.322-1.537a1684.98 1684.98 0 0 0-6.738-7.75l-.027.026 1.209 1.76c2.225 3.255 3.478 5.165 3.76 5.73l.146.312c.378.813.649 1.576-.498 2.293-1.256.785-2.23-.82-3.139-2.085l-3.79-5.234 1.231 2.898.416.993c.254.61.43 1.043.528 1.298l.035.094c.3.812.087 1.698-1.097 1.9-.783.132-1.985-1.503-2.878-3.243-1.087-1.866-1.795-3.713-2.122-5.542l-.032-.182c-.396-2.398-3.673-9.466-6.817-15.303l11.103-7.454z"/>
            <path fill="#4849E1" d="M121.463 165.616L108.65 128.24l13.321-31.085 4.132-33.289c-11.635 3.102-19.956 10.429-24.962 21.98l-2.836 6.558a2238.589 2238.589 0 0 0-9.504 22.32c-3.056 7.512-3.056 15.311 0 23.4 3.056 8.088 9.017 20.426 17.88 37.014 2.87-.64 5.762-1.98 8.676-4.022 2.915-2.041 4.95-3.875 6.107-5.5z"/>
            <path fill="#FFD3C7" d="M138.733 36.242l-1.047 18.554c-.426 4.808-1.954 7.924-5.711 8.266 5.929 8.877 13.474 10.332 19.341 9.604 5.867-.73 11.28-3.588 9.078-10.935-2.787-.21-3.872-1.549-3.872-3.783v-18.96l-17.79-2.746z"/>
            <path fill="#464646" d="M132.608 31.502c.997 7.584 3.176 12.024 6.538 13.323l2.064-7.13-2.951-8.874-5.65 2.68z"/>
            <path fill="#E6B3A5" d="M138.259 45.306c2.61 11.061 9.988 16.539 22.137 16.433l-.002-.008c-2.787-.21-3.872-1.549-3.872-3.783v-9.715l-.547-.332a173.15 173.15 0 0 0-3.547-2.078l-14.17-.517z"/>
            <path fill="#0F0F0F" d="M168.984 16.945l5.607.27.014.126c.133 1.283 1.092 11.998-3.956 12.67l-1.665-13.066z"/>
            <path fill="#FFD3C7" d="M153.377 8.374c-9.826.343-17.54 8.591-17.196 18.438l1.267 14.47c.278 7.957 7.054 13.149 17.264 14.148l.31.03c8.78.884 15.948-3.546 16.628-15.258l.788-14.694c.563-10.485-9.235-17.477-19.06-17.134z"/>
            <path fill="#464646" d="M133.536 36.374l3.412-1.986 2.175-.19c-.006-4.882 1.063-8.05 3.205-9.503l-.417-4.765c-3.125-11.375-5.372-14.603-6.744-9.684-3.605.884-5.222 3.45-4.85 7.695l.026.29c.394 4.234 1.458 10.282 3.193 18.143z"/>
            <path fill="#FFD3C7" d="M137.75 39.748l-.613-6.987c-.174-1.534-1.418-3.924-4.49-1.605-3.133 2.366-1.129 11.846 5.103 8.592z"/>
            <path fill="#CF8570" fill-rule="nonzero" d="M160.087 35.322c.595 1.067.981 2.153 1.156 3.258.268 1.687-.802 2.21-2.634 1.718a.24.24 0 1 1 .125-.464c1.545.415 2.233.079 2.034-1.179-.166-1.048-.533-2.08-1.1-3.099a.24.24 0 1 1 .42-.234z"/>
            <path fill="#464646" fill-rule="nonzero" d="M154.656 26.192c-2.09-.805-4.518-.708-7.299.308a.481.481 0 0 1-.33-.904c2.986-1.09 5.65-1.196 7.975-.302a.48.48 0 1 1-.346.898zM162.7 26.43c2.091-.69 4.241-.716 6.463-.077a.481.481 0 0 0 .266-.924c-2.406-.692-4.754-.663-7.031.089a.48.48 0 1 0 .302.913z"/>
            <path fill="#050000" d="M152.846 32.691c-.797.014-1.458-.835-1.477-1.897-.018-1.062.613-1.934 1.41-1.948.797-.014 1.458.835 1.477 1.897.018 1.062-.613 1.934-1.41 1.948zM165.312 32.647c-.797.014-1.459-.836-1.477-1.897-.019-1.062.612-1.934 1.41-1.948.797-.014 1.458.835 1.476 1.897.019 1.062-.612 1.934-1.41 1.948z"/>
            <path fill="#FFF" d="M162.852 45.038l-7.946-.208a14.392 14.392 0 0 0-.279-.005c-.078 2.15 1.085 3.945 3.702 3.893 2.616-.052 4.3-1.523 4.523-3.68z"/>
            <path fill="#464646" d="M138.259 20.62l3.652-.69c13.963-2.365 25.284-2.365 33.963 0 1.673-5.416.326-10.357-4.043-14.822-6.553-6.699-32.657-7.753-36.664 5.138l1.696 9.21 1.396 1.163z"/>
        </g>
        <g>
            <path fill="#0F0A57" d="M230.42 216.647h9.605V381.76h-9.604zM196.807 216.647h9.604V381.76h-9.604zM517.34 216.647h9.603V381.76h-9.604zM483.725 216.647h9.604V381.76h-9.604z"/>
            <path fill="#CA6D3C" d="M184.802 204.578h330.136v27.76H184.802z"/>
            <path fill="#E68E60" d="M230.42 204.578h308.528v27.76H230.421z"/>
            <path fill="#CA6D3C" d="M184.802 204.578h354.146v13.276H184.802z"/>
            <path fill="#DB8051" d="M180 199.75h339.74v9.656H180z"/>
            <path fill="#E68E60" d="M230.42 199.75h313.33v9.656H230.42z"/>
        </g>
        <g>
            <path fill="#E14300" fill-rule="nonzero" d="M235 172.317v23.361h12.75c2.347 0 4.25-1.94 4.25-4.335v-14.691c0-2.394-1.903-4.335-4.25-4.335H235zm4.722 4.817h7.556v13.727h-7.556v-13.727z"/>
            <path fill="#FF5711" d="M240.43 167.5h-24.555c-1.043 0-1.889.863-1.889 1.927v29.141c0 1.064.846 1.927 1.889 1.927h24.556c1.043 0 1.888-.863 1.888-1.927v-29.141c0-1.064-.845-1.927-1.888-1.927z"/>
        </g>
        <g>
            <path fill="#4AD9C5" d="M474.63 127h45.99v63.379h-45.99z"/>
            <path fill="#FE9B04" d="M485.523 146.279h38.727v44.1h-38.727z"/>
            <path fill="#BF8DF2" d="M471 137.121h26.704l26.546 39.019v24.36H471z"/>
            <path fill="#955CCE" d="M471 137.121h14.523V200.5H471z"/>
        </g>
        <g>
            <path fill="#E68E60" d="M57.226 346.596h36.32l-4.975 34.972H62.2z"/>
            <path fill="#000" d="M75.386 347.845l.898-.002c9.612-.032 17.262-.578 17.262-1.247 0-.683-7.969-1.238-17.86-1.249h-.9c-9.751.022-17.56.573-17.56 1.249 0 .69 8.13 1.249 18.16 1.249z"/>
            <path fill="#46AD26" d="M72.222 346.789c-2.262-20.837-6.065-35.027-11.41-42.571-3.574-1.679-6.449-3.787-8.624-6.325-3.262-3.806-6.03-4.137-12.053-3.972-6.022.166-9.84-1.835-12.46-4.317-2.62-2.482-3.362-3.054-7.859 0C15.32 292.66 7.231 294.168 0 291.886c5.668-10.126 10.836-15.311 15.506-15.557 7.004-.367 10.438 3.798 15.522 1.171 5.083-2.626 9.343-.844 12.344 3.9 3 4.743 10.272 4.48 12.795 10.486 2.523 6.007 10.221 18.567 12.426 25.654 2.205 7.088 4.303 19.235 5.358 29.249h-1.729z"/>
            <path fill="#329413" d="M80.232 280.718c6.239-12.135 9.358-23.027 9.358-32.676 0-14.474-2.262-14.385-8.334-11.547-6.073 2.839-18.649 7.631-16.968 18.938 1.12 7.539 3.299 16.72 6.536 27.544l9.408-2.26z"/>
            <path fill="#24780C" d="M80.884 236.668l.757-.352c2.283-1.048 4.001-1.649 5.246-1.121-7.18 2.567-10.771 8.368-10.771 17.402l.002.812c.046 10.072.909 21.926-.913 28.517l-4.381 1.051c-3.237-10.824-5.416-20.005-6.536-27.544-1.647-11.08 10.398-15.905 16.596-18.765z"/>
            <path fill="#2A8310" d="M94.117 293.212c6.753-4.508 10.878-9.028 12.375-13.559 2.245-6.796 5.19-13.177 10.467-15.193s1.661-3.974 7.872-4.845c4.14-.58 7.075-.58 8.805 0-3.92-3.192-8.528-5.322-13.827-6.393-7.948-1.605-11.397-.116-16.056 4.428-4.66 4.543-8.528 10.29-13.208 12.295-4.68 2.006-6.431 1.4-7.486 10.314-.703 5.943 2.983 10.261 11.058 12.953z"/>
            <path fill="#24710D" d="M103.504 257.894l.249-.244c4.659-4.544 8.108-6.033 16.056-4.428 5.17 1.044 9.683 3.098 13.539 6.161l.288.232c-8.072-5.317-16.913-4.515-26.522 2.405l-3.676 2.68c-12.627 9.23-20.84 15.973-9.695 28.11l.374.402c-8.075-2.692-11.76-7.01-11.058-12.953l.064-.524c1.062-8.368 2.836-7.824 7.422-9.79 4.597-1.97 8.41-7.548 12.959-12.05z"/>
            <path fill="#419428" d="M43.372 281.4c3 4.743 10.272 4.48 12.795 10.486 1.06 2.523 3.031 6.2 5.126 10.142l-.017.034c-18.65-30.168-42.683-21.716-50.842-16.21l-.764.513c-4.918 3.29-8.117 5.124-9.596 5.503l-.074.018c5.668-10.126 10.836-15.311 15.506-15.557 6.916-.363 10.35 3.693 15.33 1.268l.192-.097c5.083-2.626 9.343-.844 12.344 3.9z"/>
            <path fill="#34861C" d="M73.229 346.796c-.44-14.944-.922-27.11-1.446-36.498-.524-9.387-1.823-15.823-3.898-19.307-8.89 1.226-14.387-1.18-16.494-7.218-3.16-9.056-.08-11.414-5.769-17.883-5.689-6.468-6.182-11.126-3.091-14.709s12.17 0 18.762 0c6.592 0 12.2 1.234 13.512 9.488 1.31 8.255-1.311 20.206 0 24.828.874 3.082-.665 4.714-4.617 4.898 2.027 5.76 3.282 12.548 3.763 20.361.482 7.814.766 19.827.854 36.04h-1.576z"/>
            <path fill="#419428" d="M51.133 249.91l.007.024c.475 1.903 1.425 3.59 2.85 5.063 5.178 5.354 9.915 5.897 10.009 15.665l.001.3c0 6.544 1.234 13.063 3.702 19.554l.183.475c-8.89 1.226-14.387-1.18-16.494-7.218-3.128-8.964-.142-11.365-5.597-17.686l-.172-.197c-5.689-6.468-6.182-11.126-3.091-14.709 1.624-1.883 4.901-1.787 8.602-1.272z"/>
            <path fill="#24710D" d="M76.912 346.789c1.09-29.188 2.104-44.848 3.04-46.98 1.403-3.199 8.627-4.245 10.897-4.245 2.271 0 5.494-5.132 6.894-9.228 1.4-4.096 2.363-5.032 4.912-5.88 2.548-.847 3.813-5.708-1.36-6.553-5.173-.846-13.813 4.278-22.426 4.278-8.613 0-18.376-1.201-17.576 6.255.799 7.457 4.557 10.03 9.704 11.781 5.146 1.752 6.684 2.848 5.915 16.969a8718.113 8718.113 0 0 0-1.752 33.603h1.752z"/>
            <path fill="#419428" d="M78.869 278.18c8.613 0 17.253-5.123 22.426-4.277 5.12.836 3.933 5.608 1.437 6.527l-.077.027c-2.291.688-4.41 1.814-6.356 3.378-2.87 2.306-7.438 1.951-10.698.524l-.543-.244c-2.934-1.3-4.203-1.36-6.822.077l-.357.2c-2.594 1.466-1.446 1.047-7.055-1.415l-.68-.295c-5.36-2.305-8.851-3.154-8.851 1.153 0 .108-.009.209-.026.303-.508-7.126 9.106-5.957 17.602-5.957z"/>
            <path fill="#46AD26" d="M77.546 346.143c-.003-16.053 2.983-28.676 8.957-37.872 8.467 1.295 13.991-.039 16.573-4.001 3.872-5.944 6.393-13.057 15.889-12.057 6.33.666 14.58-2.349 24.748-9.045-2.382-3.85-6.43-5.775-12.143-5.775-8.57 0-10.299-5.196-16.782-1.108-6.483 4.089-13.908 3.86-18.253 11.232-4.345 7.373-6.503 11.607-10.032 13.076-3.528 1.47-4.952 4.726-1.826 6.672-6.461 12.103-9.266 25.28-8.412 39.53h1.277l.004-.652z"/>
            <path fill="#419428" d="M114.564 276.425l.224-.14c6.418-4.047 8.176 1.005 16.527 1.107l.255.001c5.621 0 9.63 1.864 12.026 5.59l.117.185c-4.256-2.343-8.83-3.515-13.72-3.515-7.336 0-12.345 3.595-20.079 5.844-7.733 2.25-21.779 15.644-25.237 21.768l-.108-.069c-2.948-1.93-1.586-5.074 1.81-6.55l.124-.053c3.529-1.469 5.687-5.703 10.032-13.076 4.295-7.288 11.6-7.148 18.03-11.092z"/>
            <path fill="#46AD26" d="M70.446 279.653c-2.073-8.556-6.527-12.23-13.361-11.02-10.251 1.812-12.14.803-18.228-1.42-6.087-2.222-4.235-2.173-10.917 0-6.682 2.173-13.074 3.608-8.613 0 4.46-3.607 13.024-8.77 22.65-6.19 9.624 2.583 25.856.09 29.997 18.63h-1.528z"/>
        </g>
        <g transform="translate(433.5 23.5)">
            <ellipse cx="38.453" cy="35.504" fill="#A2CDC6" rx="35.551" ry="35.504"/>
            <ellipse cx="35.551" cy="35.504" fill="#D4EAE7" rx="35.551" ry="35.504"/>
            <ellipse cx="35.551" cy="35.504" fill="#FFF" rx="31.488" ry="31.447"/>
            <path fill="#0F0A57" fill-rule="nonzero" d="M36.421 11.85a.87.87 0 0 0-1.74 0v23.654c0 .26.115.505.315.67l16.44 13.568a.869.869 0 1 0 1.11-1.34L36.42 35.095V11.849z"/>
        </g>
    </g>
</svg>
