<svg xmlns="http://www.w3.org/2000/svg" width="641" height="384" viewBox="0 0 641 384">
    <defs>
        <linearGradient id="a" x1="53.791%" x2="53.791%" y1="-21.856%" y2="102.834%">
            <stop offset="0%" stop-color="#F0F2FF"/>
            <stop offset="100%" stop-color="#BECBFF"/>
        </linearGradient>
    </defs>
    <g fill="none" fill-rule="evenodd">
        <path fill="url(#a)" d="M414.687 30.323l-308.3 58.261C35.503 101.98-11.1 170.301 2.295 241.184c.443 2.345.95 4.677 1.521 6.993l8.193 33.252c9.2 37.343 15.595 50.156 25.217 62.845 9.62 12.689 21.718 22.206 36.315 28.57l.876.378c14.29 6.113 28.449 9.188 66.14 9.336l328.082 1.296c93.905.37 170.33-75.455 170.702-169.36.032-8.487-.57-16.965-1.803-25.362C622.328 85.503 525.991 13.826 422.362 29.035c-2.567.377-5.126.807-7.675 1.288z" opacity=".5" transform="translate(.715 -.632)"/>
        <path fill="#FFD3C7" d="M505.01 372.024l4.618-4.666V350.8h-20.88v21.224zM567 361.606l2.847-5.914-5.395-15.656-19.973 6.873 6.915 20.067z"/>
        <path fill="#0F0A57" d="M538.467 383.102c-2.002-5.375-1.67-9.296.993-11.763l.213-.199.209-.196c2.86-2.712 5.913-6.27 6.326-9.654.075-.615.078-1.328.007-2.14a1.941 1.941 0 0 1 1.303-2.005l8.09-2.784a1.943 1.943 0 0 1 2.29.821l.031.054c1.349 2.366 3.071 3.477 5.168 3.335 3.722-.254 6.215-4.443 4.834-8.45l6.401 18.578a1.942 1.942 0 0 1-1.204 2.468l-34.661 11.935z"/>
        <path fill="#4849E1" d="M516.153 223.831l3.566 46.916 22.75 79.374c4.532 1.098 9.238.862 14.118-.71 4.88-1.572 8.42-3.687 10.619-6.346l-15.122-76.742 2.273-97.496c-48.724.406-73.085.516-73.085.329.117 0 1.68 61.461 4.688 184.384 2.508 1.185 6.775 1.777 12.799 1.777 6.024 0 10.58-.592 13.667-1.777l3.727-129.709z"/>
        <path fill="#2425B9" d="M507.266 195.078c1.294 1.609 5.645 2.32 6.837 1.609l2.05 27.144-.13 6.601-8.757-35.354z"/>
        <path fill="#0F0A57" d="M509.628 363.549v17.575c0 1.072-.87 1.942-1.942 1.942h-49.764c-.292-6.415 2.6-10.01 8.674-10.788l.185-.022c5.358-.629 11.388-2.946 16.034-5.7.966-.573 1.683-1.78 2.15-3.624a1.943 1.943 0 0 1 1.883-1.465h5.916c.904 0 1.689.623 1.893 1.503.668 2.88 2.812 4.46 6.433 4.742 4.209.327 7.055-1.06 8.538-4.163z"/>
        <path fill="#FFD3C7" d="M476.557 75.408l14.87 16.778-2.265 2.313c-14.063 14.381-22.772 23.596-26.127 27.643-12.682 15.296-22.336-3.48-19.077-6.684 4.707-4.628 15.574-17.978 32.599-40.05z"/>
        <path fill="#FF5711" d="M496.418 62.508c-1.568 0-14.853 1.994-25.142 14.966-6.859 8.648-10.724 13.564-11.596 14.748l20.403 14.21 17.71-15.03c.128-19.262-.33-28.894-1.375-28.894z"/>
        <path fill="#E14300" d="M474.484 102.52l5.104-18.05 2.184 23.352z"/>
        <path fill="#FF5711" d="M498.803 62.45l27.703-.087c12.224-.125 22.404 9.392 22.69 21.605l.038 1.526.027 1.047.029 1.056c.227 8.124.59 16.956 1.09 26.498l.062 1.134c.864 15.736 3.951 44.078 4.392 52.48.394 7.512-19.521 10.362-34.906 11.168-15.438.808-26.964-.059-34.579-2.6l-.23-.078a4.854 4.854 0 0 1-3.283-4.667 870.928 870.928 0 0 0-1.292-62.726 828.256 828.256 0 0 0-1.732-24.221c-.967-11.217 7.079-21.137 18.303-22.104.474-.04 1.178-.028 1.688-.03z"/>
        <path fill="#E14300" d="M515.123 108.034l-5.736-4.018 20.029-31.158-9.07 35.176zM529.779 110.742l19.686-17.544 2.02 36.774-3.924-28.883-14.452 18.436-6.936-4.805z"/>
        <path fill="#E6B3A5" d="M413.263 150.691c-.187-3.23 2.204-6.45 7.172-9.66l1.449 5.335-8.62 4.325z"/>
        <path fill="#FE9B04" d="M417.13 106.166l72.754-3.81 3.813 72.705-72.754 3.81z"/>
        <path fill="#D57100" d="M418.374 129.88l25.312-1.504 7.211-23.978-32.707 21.84z"/>
        <path fill="#FE9B04" d="M417.13 106.166l33.767-1.767-9.05 20.938-33.767 1.767z"/>
        <path fill="#D57100" d="M450.897 104.398l38.987-2.042 3.813 72.705-38.987 2.043z"/>
        <path fill="#FE9B04" d="M450.897 104.399l38.987-2.043 11.535 20.392-38.987 2.042z"/>
        <path fill="#FFD3C7" d="M431.942 156.519a1.525 1.525 0 0 1-1.099 1.626l-8.57 2.443c-2.112.602-5.718 0-7.26-3.926l-1.47-4.706c-1.255-4.561 2.013-5.963 3.993-6.55l.079-.022 11.936-3.253a1.735 1.735 0 0 1 2.114 1.16l.019.064a1.868 1.868 0 0 1-1.197 2.25l-11.26 3.882 14.239-3.348a1.758 1.758 0 0 1 2.1 1.256 1.704 1.704 0 0 1-1.205 2.087l-14.121 3.78 11.938-2.147a1.672 1.672 0 0 1 1.911 1.212 1.487 1.487 0 0 1-1.052 1.821l-.047.012-10.745 2.502 8.294-1.23a1.23 1.23 0 0 1 1.403 1.087zM524.711 87.417l17.314 14.247c-32.067 40.515-49.366 63.034-51.899 67.556l-3.96 6.185c-3.967 5.442-22.719 1.32-21.693 1.184 5.017-.668 7.468-4.814 9.48-7.769l.128-.19-5.585 1.355c.809-.25-.156.044-.235.06-1.217.249-2.616.26-3.088-1.218s.352-2.343 1.753-2.95c.52-.226 1.661-.617 3.421-1.171 3.23-1.219 11.38-6.116 17.267-14.076 3.925-5.307 16.29-26.378 37.097-63.213zM517.426 35.639l2.037 18.65.042.288c.71 4.659 2.422 7.602 6.152 7.746-5.508 9.262-13.037 11.128-18.99 10.703-5.954-.426-11.561-3.022-9.73-10.545 2.799-.359 3.821-1.766 3.703-4.019l-1.002-19.116 17.788-3.707z"/>
        <path fill="#464646" d="M523.912 30.99c-1.406 7.594-3.837 11.956-7.295 13.088l-1.704-7.296 3.445-8.793 5.554 3.002z"/>
        <path fill="#E6B3A5" d="M518.383 44.753c-2.046 11.289-9.195 17.201-21.448 17.736l.002-.008c2.799-.359 3.821-1.766 3.703-4.019l-.514-9.794.535-.364a174.77 174.77 0 0 1 3.465-2.282l14.257-1.27z"/>
        <path fill="#0F0F0F" d="M486.6 18.086l-5.667-.024-.035.221c-.25 1.645-1.613 11.964 3.333 12.888l2.37-13.085z"/>
        <path fill="#FFD3C7" d="M501.19 8.316c9.923-.173 18.137 7.735 18.31 17.68l-.512 14.657c.14 8.036-6.416 13.629-16.656 15.175l-.312.046c-8.803 1.356-16.263-2.732-17.568-14.504l-1.572-14.774c-1.122-10.54 8.386-18.107 18.31-18.28z"/>
        <path fill="#CF8570" fill-rule="nonzero" d="M501.095 46.55l-.125.068a9.865 9.865 0 0 1-1.727.677c-1.411.404-2.856.494-4.25.14a.243.243 0 0 0-.12.47c1.487.378 3.016.283 4.504-.143.52-.149.997-.328 1.422-.521l.171-.08.105-.051.05-.025.159-.084.056-.031a.243.243 0 1 0-.245-.42z"/>
        <path fill="#464646" d="M522.672 35.498l-3.545-1.822-2.202-.077-.019-.33c-.29-4.733-1.529-7.76-3.715-9.081l.169-4.827c2.548-11.633 4.643-15.006 6.286-10.12 3.681.702 5.447 3.202 5.296 7.503l-.017.442c-.185 4.283-.936 10.387-2.253 18.312z"/>
        <path fill="#FFD3C7" d="M518.602 39.122l.248-7.076c.095-1.556 1.223-4.032 4.441-1.856 3.285 2.22 1.766 11.884-4.69 8.932z"/>
        <path fill="#CF8570" fill-rule="nonzero" d="M495.85 35.839c-.544 1.107-.875 2.222-.993 3.346-.18 1.715.926 2.186 2.746 1.593a.243.243 0 1 0-.15-.461c-1.536.5-2.248.197-2.113-1.081.112-1.066.427-2.127.946-3.183a.243.243 0 1 0-.436-.214z"/>
        <path fill="#464646" fill-rule="nonzero" d="M500.843 26.347c2.064-.921 4.517-.952 7.374-.075a.486.486 0 0 0 .285-.928c-3.068-.941-5.76-.908-8.055.117a.485.485 0 1 0 .396.886zM492.746 27.013c-2.144-.585-4.313-.499-6.52.263a.486.486 0 0 1-.316-.918c2.388-.824 4.757-.919 7.092-.282a.485.485 0 1 1-.256.937z"/>
        <path fill="#050000" d="M503.01 32.804c.805-.028 1.426-.92 1.389-1.99-.038-1.072-.72-1.918-1.524-1.89-.804.028-1.426.92-1.388 1.99.037 1.072.72 1.918 1.524 1.89zM490.442 33.418c.804-.028 1.426-.92 1.388-1.991-.037-1.072-.72-1.918-1.524-1.89-.804.029-1.426.92-1.388 1.992.037 1.071.72 1.917 1.524 1.889z"/>
        <path fill="#464646" d="M517.078 19.863l-3.718-.502c-14.201-1.647-25.614-1.049-34.238 1.793-1.974-5.372-.876-10.424 3.292-15.157 6.251-7.099 32.511-9.54 37.232 3.244l-1.223 9.376-1.345 1.246z"/>
        <path fill="#FF5711" d="M512.264 103.785l20.115 13.652 16.889-24.062c-.305-9.725-2.338-16.774-6.099-21.146-3.76-4.371-6.98-6.733-9.659-7.084l-21.246 38.64z"/>
        <g>
            <path fill="#CA6D3C" d="M161.97 190h-29.448a2.424 2.424 0 0 0-2.433 2.415v186.687a2.424 2.424 0 0 0 2.433 2.415h29.448V190zM268.566 190h-29.204a2.424 2.424 0 0 0-2.434 2.415v186.687a2.424 2.424 0 0 0 2.434 2.415h29.204a2.424 2.424 0 0 0 2.434-2.415V192.415a2.424 2.424 0 0 0-2.434-2.415z"/>
            <path fill="#4849E1" d="M209.184 211.011h26.04v39.366h-26.04z"/>
            <path fill="#2425B9" d="M241.796 211.011H229.87v39.366h11.926z"/>
            <path fill="#CFCFF8" d="M186.794 221.396h26.04v28.981h-26.04z"/>
            <path fill="#B4B4E9" d="M219.406 221.396H207.48v28.981h11.926z"/>
            <path fill="#4AD9C5" d="M165.864 203.766h26.04v46.611h-26.04z"/>
            <path fill="#2CB3A0" d="M198.476 203.766H186.55v46.611h11.925z"/>
            <path fill="#F0996C" d="M161.97 190a2.424 2.424 0 0 0-2.434 2.415v186.687a2.424 2.424 0 0 0 2.434 2.415h106.596a2.424 2.424 0 0 0 2.434-2.415V192.415a2.424 2.424 0 0 0-2.434-2.415H161.97zm7.301 130.415h91.994v50.717h-91.994v-50.717zm0-60.377h91.994v50.717h-91.994v-50.717zm0-60.378h91.994v50.717h-91.994V199.66z"/>
            <path fill="#2CB3A0" d="M248.367 334.423H181.44v36.71h66.927z"/>
            <path fill="#4AD9C5" d="M248.367 334.423h-53.785v36.71h53.785z"/>
            <path fill="#169180" d="M251.774 329.11h-73.741v12.558h73.74z"/>
            <path fill="#2CB3A0" d="M251.774 329.11h-57.192v12.558h57.192z"/>
            <path fill="#F6F6FF" d="M246.906 298.438h-66.44v12.317h66.44z"/>
            <path fill="#D9D9E0" d="M203.343 298.438h-22.877v12.317h22.877z"/>
            <path fill="#B4B4E9" d="M246.906 298.438h-68.873v2.415h66.44v7.487h-66.44v2.415h68.873z"/>
            <path fill="#CFCFF8" d="M246.906 298.438h-43.563v2.415h41.13v7.487h-41.13v2.415h43.563z"/>
            <path fill="#F6F6FF" d="M256.641 286.12h-66.44v12.318h66.44z"/>
            <path fill="#D9D9E0" d="M213.078 286.12H190.2v12.318h22.877z"/>
            <path fill="#3637CB" d="M256.641 286.12h-68.874v2.416h66.44v7.487h-66.44v2.415h68.874z"/>
            <path fill="#F6F6FF" d="M248.123 273.804h-66.44v12.317h66.44z"/>
            <path fill="#D9D9E0" d="M204.56 273.804h-22.877v12.317h22.877z"/>
            <path fill="#D57100" d="M248.123 273.804H179.25v2.415h66.44v7.487h-66.44v2.415h68.874z"/>
            <path fill="#FE9B04" d="M248.123 273.804H204.56v2.415h41.13v7.487h-41.13v2.415h43.563z"/>
            <path fill="#4849E1" d="M256.641 286.12h-43.563v2.416h41.13v7.487h-41.13v2.415h43.563z"/>
        </g>
        <g>
            <path fill="#0F0A57" d="M162.167 189.995l9.952-43.448 11.88 43.448z"/>
            <path fill="#CFCFF8" d="M217.936 146h-44.894a.972.972 0 0 0-.953 1.139l6.924 42.044a.97.97 0 0 0 .953.817h44.894a.972.972 0 0 0 .953-1.139l-6.924-42.044a.97.97 0 0 0-.953-.817z"/>
            <path fill="#FF5711" d="M213.311 150.889h-7.473a.486.486 0 0 0-.477.57l1.25 7.577c.04.236.241.408.477.408h7.474a.486.486 0 0 0 .476-.569l-1.25-7.578a.485.485 0 0 0-.477-.408z"/>
            <path fill="#EBEBFF" d="M199.824 150.889h-7.474a.486.486 0 0 0-.476.57l1.25 7.577c.04.236.24.408.477.408h7.473a.486.486 0 0 0 .477-.569l-1.251-7.578a.485.485 0 0 0-.476-.408zM186.336 150.889h-7.473a.486.486 0 0 0-.477.57l1.25 7.577c.04.236.241.408.477.408h7.474a.486.486 0 0 0 .476-.569l-1.25-7.578a.485.485 0 0 0-.477-.408zM215.572 163.844h-7.473a.486.486 0 0 0-.477.57l1.25 7.578c.04.235.241.408.477.408h7.474a.486.486 0 0 0 .476-.57l-1.25-7.577a.485.485 0 0 0-.477-.409zM202.085 163.844h-7.474a.486.486 0 0 0-.476.57l1.25 7.578c.04.235.24.408.477.408h7.473a.486.486 0 0 0 .477-.57l-1.251-7.577a.485.485 0 0 0-.476-.409zM188.597 163.844h-7.473a.486.486 0 0 0-.477.57l1.25 7.578c.04.235.241.408.477.408h7.474a.486.486 0 0 0 .476-.57l-1.25-7.577a.485.485 0 0 0-.477-.409zM217.746 176.8h-7.474a.486.486 0 0 0-.476.57l1.25 7.577c.04.236.24.409.477.409h7.473a.486.486 0 0 0 .477-.57l-1.251-7.578a.485.485 0 0 0-.476-.408zM204.258 176.8h-7.473a.486.486 0 0 0-.477.57l1.25 7.577c.04.236.241.409.477.409h7.474a.486.486 0 0 0 .476-.57l-1.25-7.578a.485.485 0 0 0-.477-.408zM190.77 176.8h-7.473a.486.486 0 0 0-.476.57l1.25 7.577c.04.236.24.409.477.409h7.473a.486.486 0 0 0 .477-.57l-1.25-7.578a.485.485 0 0 0-.477-.408z"/>
        </g>
        <g>
            <path fill="#24710D" d="M94.588 313.997c.94-7.376 2.494-12.964 4.664-16.762 3.255-5.698 4.514-20.674 1.635-27.879l1.248-.828c3.057 9.334 3.057 18.235 0 26.702-4.584 12.701-4.411 12.455-5.66 17.804-.831 3.566-1.46 3.887-1.887.963z"/>
            <path fill="#E68E60" d="M78.656 337.227h39.414l-4.866 44.55H83.522z"/>
            <path fill="#000" d="M98.037 338.45h.976c10.583-.022 19.057-.56 19.057-1.223 0-.668-8.648-1.211-19.381-1.222h-.977c-10.583.022-19.056.56-19.056 1.222 0 .669 8.647 1.212 19.38 1.223z"/>
            <path fill="#46AD26" d="M85.888 282.145a15.02 15.02 0 0 0-4.231-5.14l2.252-7.904-3.448 6.522c-3.503-4.803-5.51-8.67-6.02-11.602 2.575-4.11 5.613-6.248 9.115-6.412-3.632-.458-6.86.8-9.682 3.77-.392-5.622 1.347-9.747 5.216-12.374 5.802-3.94 12.002-1.832 14.694 4.213 3.633-4.976 7.985-5.993 13.056-3.05-2.31-.326-4.233-.098-5.77.683 3.341-.319 5.46.38 6.355 2.095 1.342 2.573-.343 10.858-3.007 13.872-1.126-2.634-2.234-4.403-3.324-5.308 1.17 2.564 1.754 4.946 1.754 7.148-.459 3.056-2.343 5.243-5.653 6.561-3.31 1.319-7.079 3.627-11.307 6.926z"/>
            <path fill="#3C9B1E" d="M106.84 250.168c-2.31-.326-4.233-.098-5.77.683 3.341-.319 5.46.38 6.355 2.095 1.342 2.573-.343 10.858-3.007 13.872-1.126-2.634-2.234-4.403-3.324-5.308 1.17 2.564 1.754 4.946 1.754 7.148-.45 2.994-2.268 5.155-5.456 6.481l-.197.08c-3.218 1.282-6.87 3.5-10.956 6.654l-.351.272c3.246-4.591 4.902-9.205 4.968-13.843l.002-.29c0-4.735.975-9.666 2.926-14.794 3.633-4.976 7.985-5.993 13.056-3.05z"/>
            <path fill="#24710D" d="M83.853 293.62c4.453 1.625 8.66 7.615 12.623 17.97l.46-2.095c-3.12-9.135-7.48-14.883-13.083-17.244l-1.654.342 1.654 1.026zM111.287 319.687c-5.754 7.267-3.15 11.564 7.812 12.893-.705-3.64-.577-6.203.382-7.69-.226 3.331.256 6.045 1.447 8.142 2.684.59 5.315.656 7.893.199 2.578-.458 4.463-.187 5.656.812-.828-1.616-.828-3.465 0-5.545.829-2.08.829-4.713 0-7.9-1.11-.553-2.996-.553-5.656 0 1.605-.891 3.489-1.337 5.653-1.337-2.923-4.67-5.908-7.386-8.954-8.15-4.57-1.146-9.657-1.54-11.62 6.12l-1.512 1.869-1.101.587z"/>
            <path fill="#2B8011" d="M114.434 315.532l.07-.179c2.27-5.705 6.858-5.285 11.016-4.242 3.046.764 6.03 3.48 8.954 8.15-2.164 0-4.048.446-5.653 1.337 2.66-.553 4.545-.553 5.656 0 .804 3.093.828 5.665.071 7.715l-.07.185c-.803 2.013-.829 3.81-.078 5.388l.077.157c-5.538-8.265-12.219-14.436-20.043-18.511l.07-.179-.07.179z"/>
            <path fill="#419428" d="M73.712 326.07c-.616-3.025-3.307-4.294-8.075-3.809-4.768.486-7.397 4.593-7.886 12.322 1.591-.72 3.08-.9 4.463-.54-2.206.436-3.724 1.036-4.552 1.8-.297 3.334-.379 6.256-.245 8.766s-1.174 5.521-3.923 9.035c5.671.22 9.926-.947 12.763-3.501.028-.892-.285-2.038-.938-3.436 1.081.836 1.736 1.875 1.966 3.116 4.027-2.516 6.94-4.81 8.74-6.883-.513-2.327-1.632-4.193-3.358-5.596 1.963.594 3.403 2.303 4.318 5.127 2.925-4.108 4.492-7.304 4.698-9.585.31-3.423-.856-4.826-2.372-6.225-1.011-.932-2.877-1.13-5.6-.591z"/>
            <path fill="#46AD26" d="M73.712 326.07l-.218.492c-7.103 16.005-13.708 25.02-19.815 27.049l-.111.035-.074-.002c2.69-3.439 4-6.397 3.93-8.874l-.007-.161c-.134-2.51-.052-5.432.245-8.765.828-.765 2.346-1.365 4.552-1.8-1.384-.36-2.872-.18-4.463.539.49-7.73 3.118-11.836 7.886-12.322 4.694-.478 7.376.746 8.045 3.67l.03.139z"/>
            <path fill="#419428" d="M53.135 316.515c-.527-2.45-1.54-4.603-3.041-6.459-2.252-2.782-2.672-9.995-1.336-13.14l7.01-2.498-6.32.852c-.107-3.655 2-8.03 6.32-13.125l10.088 1.379c-3.009-1.548-5.985-2.322-8.928-2.322 2.018-3.383 5.364-5.719 10.036-7.007 3.921-.651 7.151-.026 9.69 1.877l.298 5.304.842-4.523c3.105 3.006 4.139 5.9 3.102 8.683 5.97 3.756 7.172 8.507 3.609 14.254-.118-2.837-1.175-4.755-3.17-5.755 1.686 3.234 2.303 5.864 1.851 7.89-3.8 5.907-7.454 9.273-10.961 10.098l.063-6.81-1.396 6.81c-2.901 1.823-5.953 2.735-9.158 2.735-3.204 0-6.07.586-8.6 1.757z"/>
            <path fill="#46AD26" d="M76.654 276.072l.298 5.304.842-4.523c3.05 2.953 4.101 5.797 3.155 8.534l-.053.15c-11.72 3.795-20.907 13.953-27.56 30.475l-.201.503c-.527-2.45-1.54-4.603-3.041-6.459-2.252-2.782-2.672-9.995-1.336-13.14l7.01-2.498-6.32.852c-.107-3.655 2-8.03 6.32-13.125l10.088 1.379c-3.009-1.548-5.985-2.322-8.928-2.322 2.018-3.383 5.364-5.719 10.036-7.007 3.921-.651 7.151-.026 9.69 1.877z"/>
            <path fill="#24710D" d="M104.427 311.034c3.47-6.368 4.626-12.63 3.47-18.783-1.735-9.23-3.391-11.657 0-14.675l.654 1.855c-1.6 1.237-1.678 3.92-.235 8.05 2.164 6.194 3.542 15.708-1.827 24.109l-2.062-.556z"/>
            <path fill="#24710D" d="M116.438 286.721c-5.498-.583-8.534-3.632-9.11-9.145-.574-5.514 1.748-8.198 6.968-8.051 3.09-7.85 7.775-9.27 14.052-4.26-3.033.15-5.225.896-6.576 2.242 3.268-1.517 6.16-1.726 8.673-.627 4.227 3.637 6.675 7.639 7.347 12.004 1.007 6.548-3.018 9.5 1.552 13.367-5.747-.15-10.563-1.52-14.45-4.107-3.886-2.587-6.705-3.061-8.456-1.423z"/>
            <path fill="#2B8011" d="M128.348 265.266c-3.033.148-5.225.895-6.576 2.24 3.268-1.516 6.16-1.725 8.673-.626 4.227 3.637 6.675 7.639 7.347 12.004.996 6.482-2.938 9.44 1.418 13.251l.134.116c-4.264-1.055-7.679-3.605-10.244-7.65l-.229-.364c-3.71-5.957-6.041-12.104-14.575-14.712 3.09-7.85 7.775-9.27 14.052-4.26z"/>
            <path fill="#3C9B1E" d="M94.943 309.85c6.49-6.82 12.327-6.326 17.513 1.482 5.186 7.807 2.904 15.865-6.847 24.171l-2.732-6.403 1.164 6.403c-7.174 5.606-10.76 9.459-10.76 11.557-2.599-1.183-4.526-2.628-5.783-4.337l1.58-6.362-3.303 6.362c-5.14-4.686-7.711-10.238-7.711-16.653l4.987-5.493-4.987 3.54c-.87-5.834.368-11.053 3.713-15.655 3.345-4.603 7.733-4.14 13.166 1.388z"/>
            <path fill="#46AD26" d="M94.943 309.85l.049.26c1.586 8.547.217 12.123-1.712 19.262-1.282 4.746-1.298 10.553-.05 17.42l.05.268c-2.598-1.183-4.525-2.628-5.782-4.337l1.58-6.362-3.303 6.362c-5.14-4.686-7.711-10.238-7.711-16.653l4.987-5.493-4.987 3.54c-.87-5.834.368-11.053 3.713-15.655 3.345-4.603 7.733-4.14 13.166 1.388l.049.26-.05-.26zM119.322 311.034c-1.999-1.097-4.62-3.081-7.867-5.954-3.246-2.872-5.785-4.45-7.618-4.737-.554-2.297-.13-4.197 1.271-5.7-1.768.945-2.652 2.789-2.652 5.532-4.95-3.344-7.358-7.183-7.223-11.516.204-6.5 10.678-7.338 14.681-5.373 5.832-3.014 10.315-2.758 13.45.768 1.821 2.33 2.987 4.387 3.498 6.173-1.604-1.231-3.509-1.8-5.715-1.707 3.247.906 5.231 2.202 5.952 3.888.654 5.36.006 9.427-1.945 12.202-.67-1.282-2.03-2.611-4.077-3.988 1.963 2.244 3.077 4.022 3.342 5.336-1.2 1.587-2.126 2.663-2.78 3.227a43.628 43.628 0 0 1-2.317 1.849z"/>
            <path fill="#419428" d="M123.364 284.054c1.821 2.33 2.987 4.387 3.498 6.173-1.604-1.231-3.509-1.8-5.715-1.707 3.247.906 5.231 2.202 5.952 3.888.654 5.36.006 9.427-1.945 12.202-.67-1.282-2.03-2.611-4.077-3.988 1.963 2.244 3.077 4.022 3.342 5.336l-.283.371c-1.063 1.385-1.895 2.337-2.496 2.856a43.628 43.628 0 0 1-2.318 1.849l-.062-.905c-1.054-14.657-4.17-23.605-9.346-26.843 5.832-3.014 10.315-2.758 13.45.768z"/>
        </g>
        <g transform="matrix(-1 0 0 1 419 21)">
            <path fill="#FFD3C7" d="M46.385 349.64l6.344-1.73 8.3-14.316-18.115-10.416-10.638 18.35z"/>
            <path fill="#0F0A57" d="M54.639 344.617l-8.81 15.195a1.95 1.95 0 0 1-2.658.71L0 335.698c2.962-5.691 7.272-7.358 12.932-5l.172.073c4.963 2.13 11.355 3.134 16.766 3.07 1.125-.013 2.353-.7 3.681-2.06a1.952 1.952 0 0 1 2.369-.328l5.132 2.951a1.935 1.935 0 0 1 .906 2.184l-.017.06c-.864 2.823.204 5.259 3.204 7.309 3.487 2.382 6.652 2.602 9.494.66z"/>
            <path fill="#FFD3C7" d="M105.626 321.02l2.432-6.087-6.486-15.217-19.479 8.235 8.313 19.504z"/>
            <path fill="#0F0A57" d="M78.616 344.415c-2.376-5.213-2.32-9.142.17-11.784l.199-.213.195-.21.198-.216c2.607-2.869 5.277-6.523 5.449-9.839.032-.617-.016-1.328-.143-2.132-.14-.879.34-1.74 1.161-2.087l7.89-3.336a1.95 1.95 0 0 1 2.381.71c1.513 2.263 3.312 3.25 5.397 2.962 3.703-.511 5.9-4.857 4.24-8.752l7.696 18.057a1.937 1.937 0 0 1-1.03 2.542l-33.803 14.298z"/>
            <path fill="#FF5711" d="M79.162 166.532l-30.524 63.27a24.14 24.14 0 0 0 .595 22.14l31.268 61.646c5.395-.78 10.182-2.05 14.36-3.813 4.18-1.762 7.878-4.07 11.096-6.923l-22.292-66.061 40.983-75.02-45.486 4.76z"/>
            <path fill="#FF5711" d="M146.13 164.136c-3.685 21.136-12.739 44.678-27.162 70.624-14.424 25.946-33.986 63.28-58.687 102.31-4.242-.499-8.455-1.92-12.64-4.263-3.143-1.76-6.259-4.444-9.346-8.049L44.37 312c37.707-79.163 60.862-132.093 69.465-149.098l32.295 1.234z"/>
            <path fill="#E14300" d="M96.843 272.977l-19.025 35.322-1.431-2.598zM61.406 275.94l17.166-40.4-18.688 37.4zM81.305 230.233l18.609-38.96c-4.381.161-7.763-.997-10.145-3.475-.032 2.73 1.765 4.533 5.392 5.408l-13.856 37.027z"/>
            <path fill="#4849E1" d="M99.991 63.23l27.381 1.189c11.97.52 21.406 10.336 21.406 22.269v31.756c0 16.102-1.078 33.57-3.233 52.402l-.08.698a4.849 4.849 0 0 1-3.1 3.972c-8.596 3.266-19.108 4.9-31.537 4.9-11.984 0-22.039-1.519-30.164-4.556l-.246-.092a4.845 4.845 0 0 1-3.127-4.77 1140.862 1140.862 0 0 0 1.426-62.236c-.037-8.39-.053-16.792-.05-25.207.004-11.24 9.156-20.348 20.442-20.344.294 0 .588.007.882.02z"/>
            <path fill="#3637CB" d="M138.605 89.202l10.173 5.13v24.112c0 5.33-.118 10.81-.354 16.438l-9.82-45.68z"/>
            <path fill="#FFD3C7" d="M156.752 168.51l-6.587-5.72 6.587-35.442c-6.976-16.81-11.016-27.008-12.118-30.59-1.102-3.583 5.459-6.101 19.684-7.556 4.432 12.727 11.807 29.443 9.788 40.399-2.508 11.275-6.016 23.419-10.945 35.698-.532 1.326-1.589 3.204-3.396 3.207l-3.013.004z"/>
            <path fill="#E6B3A5" d="M151.229 157.07c4.419.484 7.08 2.015 9.154 4.228-2.643-1.453-5.06-2.239-9.29-2.306l-.224-.003.36-1.92z"/>
            <path fill="#4849E1" d="M151.02 119.35c-4.243-10.198-6.694-16.368-7.353-18.511-1.102-3.583-6.775-15.768-17.017-36.556 22.511 1.59 35.894 9.063 40.15 22.42 4.256 13.356 6.96 21.803 8.11 25.34l-23.89 7.306z"/>
            <path fill="#FFD3C7" d="M160.96 162.57c.86.635-1.08 4.22-1.822 5.931h-2.775c-.798 1.47-1.21 2.888-1.235 4.257l-.002.137c0 2.086-.962 2.424-1.754 2.434h-.035c-.799 0-1.739-.317-1.739-2.434 0-1.033.107-2.202.321-3.507-.864 1.744-1.366 3.674-1.505 5.79 0 1.64-.599 2.459-1.796 2.459-1.797 0-2.31-.547-2.31-3.58 0-1.469.405-3.258 1.217-5.37-1.502 3.059-2.202 6.094-2.098 9.107 0 1.422-.592 2.238-1.776 2.448-1.776.316-2.182-1.22-2.348-2.268-.226-1.585.04-4.142.798-7.671a14.349 14.349 0 0 0-1.23 4.765l-.03.427c-.283 3.603-.741 3.994-2.305 3.994-1.399 0-2.078-1.474-2.038-4.42.064-4.657 2.796-13.476 9.14-15.319 6.344-1.843 11.342-.12 15.322 2.82z"/>
            <path fill="#E6B3A5" d="M158.413 165.773c-.499 1.091-.712 2-.64 2.729h-1.41c.593-1.134 1.276-2.043 2.05-2.729z"/>
            <path fill="#FFD3C7" d="M122.25 37.25l1.058 18.7c.43 4.847 1.962 8.08 5.775 8.333-5.995 8.947-13.625 10.414-19.558 9.679-5.934-.735-11.427-3.365-9.2-10.77 2.818-.21 3.935-1.812 3.935-4.064V40.017l17.99-2.767z"/>
            <path fill="#E6B3A5" d="M119.829 45.323c-2.74 12.048-9.242 18.008-19.508 17.88l.003-.01c2.82-.212 3.936-1.813 3.936-4.065v-9.453c1.267-.88 2.647-1.803 4.14-2.768l11.429-1.584z"/>
            <path fill="#7C3A3A" d="M127.183 28.12l3.125-9.379c-.773 14.568-3.285 23.866-7.537 27.895l-.161-11.262 4.573-7.254z"/>
            <path fill="#430A0A" d="M89.16 30.453c-3.35-3.144-4.614-7.793-3.79-13.945l8.068 1.18-4.278 12.765z"/>
            <path fill="#FFD3C7" d="M106.85 9.117c9.94.173 17.887 8.35 17.713 18.279L123.537 42c-.142 8.104-7.922 14.763-17.52 14.596-8.502-.148-16.186-3.292-17.08-15.083L87.88 26.72c-.754-10.556 9.03-17.775 18.97-17.602z"/>
            <path fill="#7C3A3A" d="M127.406 36.986l-3.485-1.941-2.202-.154c-.081-4.92-1.217-8.094-3.41-9.52l.338-4.81c-20.238 2.383-31.721-.305-34.449-8.064C80.108.857 99.483-.06 104.615.297c5.13.358 18.47 2.987 20.68 10.386 3.66.828 5.34 3.385 5.04 7.67l-.021.292c-.324 4.275-1.293 10.388-2.908 18.341z"/>
            <path fill="#FFD3C7" d="M123.204 40.46l.489-6.958.007-.093c.15-1.55 1.365-3.98 4.512-1.698 3.21 2.33 1.351 11.919-5.008 8.749z"/>
            <path fill="#7C3A3A" d="M102.768 21.333l-.131-.002c-1.903-.004-19.26.183-22.183-5.166-3.014-5.513 3.759-6.758 10.613-6.977 6.854-.219 11.701 12.145 11.701 12.145z"/>
            <path fill="#E6B3A5" fill-rule="nonzero" d="M99.41 37.664c-.505 1.123-.798 2.247-.877 3.373-.12 1.717 1.004 2.148 2.806 1.494a.242.242 0 1 0-.167-.456c-1.52.553-2.243.275-2.153-1.005.075-1.067.353-2.136.836-3.208a.244.244 0 0 0-.444-.198z"/>
            <path fill="#FFF" d="M97.464 47.097l8.289-.07a.81.81 0 0 1 .03 0c.042 2.169-1.166 3.957-3.81 3.859-2.645-.098-4.322-1.61-4.51-3.789z"/>
            <path fill="#5A2828" fill-rule="nonzero" d="M104.686 28.813c2.099-.848 4.555-.793 7.385.182a.484.484 0 1 0 .318-.916c-3.04-1.047-5.734-1.107-8.069-.165a.484.484 0 1 0 .366.899zM97.55 27.921c-2.176-.471-4.341-.271-6.508.603a.484.484 0 1 1-.365-.898c2.346-.947 4.71-1.165 7.08-.652a.485.485 0 1 1-.207.947z"/>
            <ellipse cx="106.63" cy="33.393" fill="#050000" rx="1.46" ry="1.938"/>
            <path fill="#050000" d="M94.981 34.52c.807 0 1.46-.868 1.46-1.939 0-1.07-.653-1.938-1.46-1.938-.806 0-1.46.868-1.46 1.938 0 1.07.654 1.939 1.46 1.939z"/>
            <path fill="#FFD3C7" d="M26.151 17.992l.008-.465c.148-2.892 4.35-3.472 4.37-2.286l-.003 2.827c.055 2.662.416 7.255 1.164 9.91l.082.283c.816 2.77 1.309 5.833 1.48 9.19.159 9.095 4.909 33.486 8.093 45.821l20.286-8.068 8.453 21.752c-26.108 9.163-43.826 14.875-45.643-2.379l-.075-.735-.058-.603c-.646-6.839-1.579-21.752-3.498-50.243l-.215-.041-.235-.043c-1.483-.261-5.024-.501-7.616-.72a1.883 1.883 0 0 1-1.64-1.83 1.75 1.75 0 0 1 1.53-1.762l.06-.006.692-.122-1.051-.112a2.273 2.273 0 0 1-2.037-2.215 2.284 2.284 0 0 1 1.892-2.285l.064-.01 1.048-.155-1.237-.08c-1.225-.089-1.829-.97-1.848-2.032-.018-1.072.77-1.746 1.83-1.906l.062-.008 1.526-.185-.593-.069a2.3 2.3 0 0 1-1.945-2.516c.13-1.2 1.187-1.984 2.392-1.947l8.863.338 1.195-.02c1.835-.02 2.705-1.55 2.604-7.278z"/>
            <path fill="#E6B3A5" d="M22.469 28.165c0 .348-.082.635-.245.86l-.004-.002c-.285.455-.733.695-1.342.72.706.053 1.227.3 1.564.74.284.319.425.761.425 1.327 0 .38-.065.707-.196.979l-.034.067c-.321.646-.847.997-1.577 1.05.744.318 1.094.99 1.051 2.018-.097.878-.345 1.443-.744 1.696-.486.35-1.189.528-2.124.662.674.042 1.05.353 1.263.65l.024.034c.186.246.279.559.279.938 0 .27-.048.505-.142.703-.237.53-.779.833-1.627.908-.893.079-2.293.045-4.2-.102l1.108-.02c1.592-.036 2.57-.084 2.934-.144.177-.03.33-.075.463-.13.107-.046.205-.097.293-.155.192-.13.318-.278.398-.405a1.37 1.37 0 0 0 .187-.73c0-.139-.03-.28-.061-.395-.377-.781-1.79-1.217-4.265-1.333l.205-.014a35.496 35.496 0 0 1 2.135-.053c.497 0 .945-.052 1.345-.155 1.297-.406 1.946-1.037 1.946-1.894 0-.801-.401-1.29-.856-1.582-.374-.198-.87-.308-1.488-.33l-1.012-.039a175.072 175.072 0 0 1-2.774-.127l1.242-.054c2.148-.099 3.452-.201 3.913-.307 1.13-.372 1.694-.97 1.694-1.795 0-.19-.035-.36-.095-.514h-.006a1.635 1.635 0 0 0-.072-.164c-.312-.557-.99-.85-1.545-.997a5.3 5.3 0 0 0-.8-.089 62.917 62.917 0 0 1-4.33-.34l1.404-.017c2.024-.027 3.153-.056 3.387-.09l.312-.045c.92-.19 1.381-.658 1.381-1.404 0-1.422-1.786-1.544-2.1-1.544 1.79-.103 2.686.436 2.686 1.618z"/>
            <path fill="#4849E1" d="M58.57 103.58l-7.33-27.006c21.94-8.993 38.238-13.449 48.893-13.368L92.96 93.284 58.571 103.58z"/>
            <path fill="#3637CB" d="M73.872 99.014l4.83-17.392v15.96z"/>
            <path fill="#E6B3A5" d="M41.345 83.276s1.802 7.018-1.278 9.963c3.297-1.963 4.508-5.559 3.635-10.787l-2.357.824z"/>
        </g>
        <g transform="translate(101 22)">
            <path fill="#D5E8FF" d="M4.842 0h128.074a4.843 4.843 0 0 1 4.842 4.844v91.79a4.843 4.843 0 0 1-4.842 4.844H4.842A4.843 4.843 0 0 1 0 96.634V4.844A4.843 4.843 0 0 1 4.842 0z"/>
            <path fill="#FFF" d="M6.295 2.422h125.168a3.874 3.874 0 0 1 3.874 3.875V95.18a3.874 3.874 0 0 1-3.874 3.875H6.295A3.874 3.874 0 0 1 2.42 95.18V6.297a3.874 3.874 0 0 1 3.874-3.875z"/>
            <path fill="#FE9B04" d="M26.39 83.313l-5.693 2.994 1.087-6.34-4.605-4.491 6.364-.925 2.846-5.77 2.847 5.77 6.364.925-4.605 4.49 1.087 6.341zM54.958 83.313l-5.692 2.994 1.087-6.34-4.605-4.491 6.364-.925 2.846-5.77 2.846 5.77 6.364.925-4.605 4.49 1.087 6.341zM83.526 83.313l-5.692 2.994 1.087-6.34-4.605-4.491 6.364-.925 2.846-5.77 2.846 5.77 6.365.925-4.606 4.49 1.088 6.341zM112.095 83.313l-5.692 2.994 1.087-6.34-4.605-4.491 6.364-.925 2.846-5.77 2.846 5.77 6.364.925-4.605 4.49 1.087 6.341z"/>
            <ellipse cx="68.516" cy="34.391" fill="#EBF4FF" rx="23.726" ry="23.735"/>
            <path fill="#FF5711" d="M87.7 48.357l-.036.051c-4.317 5.892-11.286 9.718-19.148 9.718-4.21 0-8.163-1.097-11.59-3.02-.142-5.125 3.62-9.548 8.792-9.994.227-.02.564-.014.808-.015l13.257-.042a10.813 10.813 0 0 1 7.918 3.302z"/>
            <path fill="#FFD3C7" d="M75.438 32.253l.974 8.935.02.137c.34 2.232 1.16 3.642 2.944 3.71-2.635 4.438-6.238 5.331-9.087 5.128-2.849-.204-5.532-1.448-4.656-5.051 1.34-.172 1.829-.846 1.772-1.926l-.48-9.157 8.513-1.776z"/>
            <path fill="#464646" d="M78.542 30.027c-.673 3.637-1.837 5.727-3.491 6.269l-.816-3.495 1.649-4.212 2.658 1.438z"/>
            <path fill="#E6B3A5" d="M75.896 36.62c-.98 5.407-4.4 8.24-10.264 8.495v-.003c1.34-.172 1.83-.846 1.773-1.926l-.246-4.691.256-.175c.518-.35 1.07-.715 1.658-1.093l6.823-.608z"/>
            <path fill="#0F0F0F" d="M60.687 23.845l-2.712-.011-.017.105c-.12.789-.772 5.732 1.595 6.174l1.134-6.268z"/>
            <path fill="#FFD3C7" d="M67.668 19.165c4.749-.083 8.68 3.705 8.762 8.47l-.245 7.02c.067 3.85-3.07 6.529-7.97 7.27l-.15.022c-4.212.649-7.782-1.31-8.407-6.948l-.752-7.077c-.536-5.05 4.013-8.674 8.762-8.757z"/>
            <path fill="#CF8570" fill-rule="nonzero" d="M67.623 37.48l-.06.033a4.718 4.718 0 0 1-.826.324c-.676.194-1.367.237-2.034.067a.116.116 0 1 0-.058.225c.712.181 1.444.136 2.156-.068.248-.072.477-.158.68-.25l.082-.038.05-.025.024-.012.076-.04.027-.015a.116.116 0 0 0-.117-.2z"/>
            <path fill="#464646" d="M77.948 32.186l-1.696-.873-1.054-.037-.009-.157c-.139-2.268-.732-3.718-1.778-4.351l.08-2.312c1.22-5.573 2.223-7.189 3.009-4.848 1.762.336 2.606 1.534 2.535 3.594l-.009.212c-.088 2.051-.447 4.975-1.078 8.772z"/>
            <path fill="#FFD3C7" d="M76 33.922l.12-3.39c.045-.745.584-1.931 2.124-.889 1.572 1.063.845 5.693-2.244 4.279z"/>
            <path fill="#CF8570" fill-rule="nonzero" d="M65.113 32.35a4.753 4.753 0 0 0-.475 1.602c-.087.822.443 1.047 1.314.763a.116.116 0 0 0-.072-.22c-.735.239-1.076.094-1.011-.519.053-.51.204-1.018.452-1.524a.116.116 0 0 0-.208-.103z"/>
            <path fill="#464646" fill-rule="nonzero" d="M67.502 27.802c.988-.441 2.161-.456 3.529-.036a.232.232 0 1 0 .136-.444c-1.468-.451-2.756-.435-3.854.056a.233.233 0 0 0 .19.424zM63.628 28.121c-1.027-.28-2.065-.239-3.12.126a.232.232 0 1 1-.152-.44c1.143-.394 2.276-.44 3.394-.134a.233.233 0 0 1-.122.448z"/>
            <path fill="#050000" d="M68.54 30.896c.384-.014.682-.44.664-.954-.018-.514-.345-.919-.73-.905-.384.013-.682.44-.664.953.018.514.345.919.73.906zM62.525 31.19c.385-.014.682-.441.664-.954-.018-.514-.344-.919-.73-.905-.384.013-.681.44-.663.953.017.514.344.919.729.906z"/>
            <path fill="#464646" d="M75.271 24.696l-1.78-.24c-6.795-.789-12.256-.503-16.383.859-.945-2.573-.42-4.994 1.575-7.26 2.992-3.402 15.558-4.57 17.817 1.553l-.585 4.492-.644.596z"/>
        </g>
    </g>
</svg>
