<svg xmlns="http://www.w3.org/2000/svg" width="573" height="393" viewBox="0 0 573 393">
    <defs>
        <linearGradient id="a" x1="53.791%" x2="53.791%" y1="-21.856%" y2="102.834%">
            <stop offset="0%" stop-color="#F0F2FF"/>
            <stop offset="100%" stop-color="#BECBFF"/>
        </linearGradient>
        <rect id="b" width="536.675" height="359.147" x=".035" y=".187" rx="6"/>
    </defs>
    <g fill="none" fill-rule="evenodd">
        <path fill="url(#a)" d="M395.029 392.878l-247.974-10.07c-61.003-2.478-108.447-53.94-105.97-114.942a110.546 110.546 0 0 1 16.67-54.035l30.736-49.256c28.459-45.608 40.517-60.385 56.266-75.07 15.748-14.687 32.864-25.558 52.85-33.572l1.198-.477c19.543-7.723 38.357-12.3 90.67-18.548l61.544-7.352c36.863-4.404 71.71.68 102.306 13.507 30.597 12.827 56.944 33.399 76.809 59.971 19.865 26.572 33.247 59.146 37.915 95.976l.6 4.734c11.676 92.12-53.537 176.263-145.657 187.938a168.132 168.132 0 0 1-27.963 1.196z" opacity=".5" transform="translate(-4 -.005)"/>
        <path fill="#E68E60" d="M349.861 281.893h8.537l-4.878 106.058h-8.536zM410.101 281.893h8.536v106.058h-8.536zM469.122 281.893h8.536l7.317 106.058h-8.537z"/>
        <path fill="#4AD9C5" d="M333.765 278.22h152.429v9.797a2.444 2.444 0 0 1-2.439 2.45h-149.99a2.444 2.444 0 0 1-2.439-2.45v-7.348a2.444 2.444 0 0 1 2.439-2.45z"/>
        <path fill="#2CB3A0" d="M431.32 278.22h54.874v9.797a2.444 2.444 0 0 1-2.439 2.45H431.32v-12.248z"/>
        <path fill="#2CB3A0" d="M391.81 278.22h94.384l16.123-96.923c.444-2.669-1.35-5.194-4.007-5.64a4.857 4.857 0 0 0-.804-.066h-84.494a4.884 4.884 0 0 0-4.81 4.091L391.81 278.22z"/>
        <path fill="#4AD9C5" d="M391.81 278.22h87.067L495 181.296c.444-2.669-1.35-5.194-4.007-5.64a4.857 4.857 0 0 0-.804-.066h-77.177a4.884 4.884 0 0 0-4.81 4.091L391.81 278.22z"/>
        <g transform="translate(75 268)">
            <path fill="#0F0A57" d="M174.38 95.37h-14.048l8.78 25.466h7.025zM137.502 95.37h-14.048l8.78 25.466h7.025zM58.478 95.37H44.429v25.466h7.025zM19.317 95.37H5.268v25.466h7.025z"/>
            <path fill="#CA6D3C" d="M5.268 0h170.869a3.512 3.512 0 0 1 3.512 3.513v93.261a3.512 3.512 0 0 1-3.512 3.513H5.268V0z"/>
            <path fill="#E68E60" d="M3.512 0h146.283a3.512 3.512 0 0 1 3.512 3.513v93.261a3.512 3.512 0 0 1-3.512 3.513H3.512A3.512 3.512 0 0 1 0 96.774V3.513A3.512 3.512 0 0 1 3.512 0z"/>
            <path fill="#CA6D3C" fill-rule="nonzero" d="M14.049 9.66h125.21a4.39 4.39 0 0 1 4.39 4.39v24.695a4.39 4.39 0 0 1-4.39 4.39H14.049a4.39 4.39 0 0 1-4.39-4.39V14.05a4.39 4.39 0 0 1 4.39-4.391z"/>
            <path fill="#F0996C" fill-rule="nonzero" d="M14.049 11.416a2.634 2.634 0 0 0-2.634 2.635v24.694a2.634 2.634 0 0 0 2.634 2.634h125.21a2.634 2.634 0 0 0 2.634-2.634V14.05a2.634 2.634 0 0 0-2.634-2.635H14.049z"/>
            <ellipse cx="76.741" cy="26.345" fill="#CA6D3C" rx="6.322" ry="6.323"/>
            <path fill="#CA6D3C" fill-rule="nonzero" d="M14.049 57.081h125.21a4.39 4.39 0 0 1 4.39 4.39v24.695a4.39 4.39 0 0 1-4.39 4.39H14.049a4.39 4.39 0 0 1-4.39-4.39V61.472a4.39 4.39 0 0 1 4.39-4.39z"/>
            <path fill="#F0996C" fill-rule="nonzero" d="M14.049 58.837a2.634 2.634 0 0 0-2.634 2.635v24.694a2.634 2.634 0 0 0 2.634 2.635h125.21a2.634 2.634 0 0 0 2.634-2.635V61.472a2.634 2.634 0 0 0-2.634-2.635H14.049z"/>
            <ellipse cx="76.741" cy="73.766" fill="#CA6D3C" rx="6.322" ry="6.323"/>
        </g>
        <g transform="translate(156 135)">
            <path fill="#FF5711" d="M13.876 94.455h16.63l-2.66 38.882h-11.31z"/>
            <ellipse cx="22.191" cy="94.455" fill="#000" rx="8.315" ry="1"/>
            <path fill="#419428" d="M20.654 94.292c-1.924-27.631-3.363-42.767-4.317-45.408-1.43-3.961-7.501-13.119-8.809-15.605-1.308-2.485-1.86-8.774 0-15.3 2.296 5.453 5.058 10.072 8.285 13.857 4.841 5.678 4.026 12.197 2.425 17.37 2.257 24.347 3.652 39.375 4.182 45.086h-1.766z"/>
            <path fill="#46AD26" d="M7.528 17.979l-.055.382c-1.22 9.04 3.228 16.85 6.15 21.608 1.907 3.106 2.881 6.233 2.923 9.381v.28a6.823 6.823 0 0 0-.209-.746c-1.43-3.961-7.501-13.119-8.809-15.605-1.308-2.485-1.86-8.774 0-15.3z"/>
            <path fill="#24710D" d="M21.32 94.292l-5.016-22.25c1.166-4.656.37-8.048-2.388-10.176C9.78 58.676.166 53.606.166 50.451c-.601 1.928.433 4.097 3.102 6.506S9.86 64.504 15.04 72.37l4.967 21.92h1.311z"/>
            <path fill="#46AD26" d="M.146 50.565l.02-.114c0 3.154 9.614 8.224 13.75 11.415 2.73 2.106 3.538 5.452 2.423 10.037l-.035.14c-.061-4.753-1.841-8.157-5.34-10.212l-.425-.246C5.32 58.55-.431 54.26.146 50.565l.02-.114-.02.114z"/>
            <path fill="#419428" d="M20.008 94.292c-2.66-7.672-5.28-11.865-7.862-12.58-3.873-1.071-8.988-2.88-11.251-8.249 8.841.978 13.656 3.919 14.445 8.823 2.582 3.308 4.409 7.31 5.48 12.006h-.812z"/>
            <path fill="#46AD26" d="M.895 73.463c8.723.965 13.527 3.84 14.412 8.628l.033.195c-1.897-2.62-3.72-4.194-5.468-4.723l-.514-.157c-2.582-.8-6.506-2.17-8.292-3.78l-.171-.163z"/>
            <path fill="#419428" d="M23.189 94.292h.813l.16-.457c2.604-7.38 5.172-11.422 7.702-12.122l.352-.099c3.825-1.085 8.703-2.943 10.899-8.15-8.842.977-13.657 3.918-14.446 8.822-2.581 3.308-4.408 7.31-5.48 12.006z"/>
            <path fill="#46AD26" d="M43.115 73.463l-.088.1c-2.853 3.243-4.288 3.552-8.069 4.312-2.504.503-4.572 1.933-6.206 4.29l-.083.121.025-.147c.861-4.816 5.668-7.708 14.421-8.676z"/>
            <path fill="#24710D" d="M20.82 94.292c.582-22.304 1.65-42.017 3.205-59.141-2.751-7.694-2.621-13.886.39-18.574C28.93 9.545 34.364 4.142 33.8 0c3.383 10.715 3.512 18.272.385 22.67a1693.636 1693.636 0 0 0-8.793 12.481c-1.982 22.558-2.973 42.272-2.973 59.14h-1.6z"/>
            <path fill="#46AD26" d="M33.801 0c3.383 10.715 3.512 18.272.385 22.67l-1.328 1.87c-2.632 3.712-5.12 7.249-7.465 10.611 1.227-5.06 3.009-9.188 5.346-12.382l.308-.423c3.278-4.522 5.086-7.961 2.826-21.907L33.801 0z"/>
            <path fill="#419428" d="M23.607 94.292c.872-12.5 2.332-22.28 4.38-29.336 2.532-1.061 5.35-3.452 8.452-7.172 4.652-5.58 8.478-11.126 7.004-19.56-2.111 3.054-4.654 5.421-7.628 7.103-4.462 2.522-10.482 9.707-9.155 19.63-2.342 10.175-3.697 19.952-4.068 29.33h.474l.541.005z"/>
            <path fill="#46AD26" d="M43.443 38.224l-.082.311c-1.662 6.131-4.759 6.769-10.183 11.472-3.604 3.125-5.763 7.976-6.477 14.553l-.041.396-.04-.319c-1.145-9.65 4.651-16.66 9.049-19.226l.146-.084c2.86-1.617 5.32-3.868 7.383-6.754l.245-.349z"/>
            <path fill="#24710D" d="M23.607 94.292c.573-8.166 3.756-15.748 9.551-22.744 5.145-2.015 8.547-4.802 10.205-8.36 1.658-3.559 3.943-5.717 6.854-6.476-9.325.26-15.349 4.924-18.072 13.99-5.941 7.928-9.098 15.787-9.47 23.577h.558l.374.013z"/>
            <path fill="#46AD26" d="M49.933 56.763l.284-.05c-2.874.748-5.137 2.861-6.79 6.338l-.064.137c-1.631 3.5-4.948 6.253-9.951 8.26h-.26c1.944-1.55 3.559-3.53 4.845-5.94l.113-.214c1.83-3.502 2.728-6.89 11.823-8.531l.284-.05-.284.05z"/>
        </g>
        <g>
            <path fill="#FFD3C7" d="M126.763 376.469l-4.649-4.704v-16.696h21.021v21.4zM78.85 376.469l-4.65-4.704v-16.696h21.266v21.4z"/>
            <path fill="#4849E1" d="M108.212 227.05l-9.928 130.782c-4.048 1.195-8.532 1.792-13.45 1.792-4.92 0-9.148-.597-12.685-1.792l-.11-87.94-2.288-98.301 11.301.092c41.516.333 62.274.412 62.274.24-.177 0 4.733 77.616 4.733 97.975l-.001 1.264c-.018 14.08-.332 42.971-.94 86.67-3.31 1.195-7.997 1.792-14.061 1.792-6.065 0-10.651-.597-13.76-1.792l-3.784-86.83-7.301-43.952z"/>
            <path fill="#2425B9" d="M117.157 198.058c-1.302 1.623-5.682 2.34-6.882 1.623l-2.063 27.369 1.108 6.655 7.837-35.647z"/>
            <path fill="#0F0A57" d="M122.114 367.923v17.722c0 1.08.876 1.957 1.956 1.957h50.097c.294-6.467-2.617-10.093-8.732-10.877l-.186-.022c-5.394-.634-11.464-2.97-16.141-5.747-.973-.578-1.695-1.796-2.165-3.654-.22-.869-1-1.477-1.896-1.477h-5.956c-.91 0-1.7.628-1.905 1.515-.672 2.903-2.831 4.497-6.477 4.781-4.236.33-7.101-1.069-8.595-4.198zM113.06 387.602c.142-5.78-1.46-9.41-4.804-10.889-3.734-1.65-8.141-4.123-9.72-7.366-.272-.562-.508-1.241-.707-2.039a1.956 1.956 0 0 0-1.898-1.483h-8.614c-.92 0-1.712.64-1.91 1.534l-.012.06c-.508 2.699-1.783 4.324-3.825 4.876-3.627.98-7.373-2.197-7.373-6.47v19.811c0 1.081.875 1.958 1.955 1.958l36.908.008z"/>
            <path fill="#FFD3C7" d="M171.87 120.143l13.941-7.793 2.985-8.377a1.727 1.727 0 0 1 2.132-1.072 2.01 2.01 0 0 1 1.41 2.126l-.465 4.521 14.73-8.242a1.791 1.791 0 0 1 2.398.62c.486.786.26 1.812-.501 2.322l-.056.036-7.467 4.603 10.985-4.382a2.243 2.243 0 0 1 2.726.884 1.649 1.649 0 0 1-.687 2.371l-11.27 5.34 10.152-3.1a1.79 1.79 0 0 1 2.14.95c.35.741.033 1.626-.708 1.976l-.057.026-9.52 4.016 6.545-1.271a1.695 1.695 0 0 1 1.922 1.102c.269.763-.13 1.6-.892 1.87l-9.76 3.468c-1.046.372-2.136.61-3.242.706l-3.658.32-17.139 8-6.644-11.02z"/>
            <path fill="#FE9B04" d="M187.717 128.534c-17.876 8.716-28.78 13.87-32.713 15.46-5.9 2.384-15.369 1.55-19.18-14.54-2.54-10.727-5.817-24.95-9.828-42.669l-3.21-24.146c13.012.75 21.264 8.798 24.755 24.146 5.237 23.022 8.658 32.866 8.658 32.866l25.852-9.565c-.203 3.298.13 6.364 1.001 9.199a30.862 30.862 0 0 0 4.665 9.249z"/>
            <path fill="#D57100" d="M137.048 133.616l-2.82-52.322 8.535 47.435.589 3.281c2.073 11.564 9.951 13.702 23.636 6.415l.417-.224-.17.212-2.574 1.216c-4.654 2.188-7.873 3.643-9.657 4.364-5.342 2.16-13.611 1.68-17.956-10.377z"/>
            <path fill="#FE9B04" d="M120.407 62.658L92.54 63.832c-12.295.519-21.891 10.83-21.535 23.143l.043 1.538c.236 8.768.354 18.388.354 28.859l-.001 1.145c-.039 15.89-1.649 44.59-1.649 53.074 0 7.584 20.172 9.404 35.681 9.404 15.563 0 27.105-1.481 34.626-4.442l.227-.09a4.894 4.894 0 0 0 3.055-4.872 879.496 879.496 0 0 1-2.008-63.227 836.4 836.4 0 0 1 .464-24.48c.381-11.345-8.499-20.851-19.834-21.233a20.518 20.518 0 0 0-1.555.007z"/>
            <path fill="#D57100" d="M70.38 152.345l35.49-4.201-35.07-6.446-.083 2.169c-.112 2.886-.227 5.741-.337 8.478z"/>
            <path fill="#FFD3C7" d="M97.95 36.637l-1.063 18.887-.028.291c-.468 4.73-2.034 7.782-5.776 8.124 6.025 9.036 13.693 10.517 19.656 9.775 5.962-.742 11.463-3.652 9.225-11.13-2.833-.214-3.935-1.577-3.935-3.85V39.431l-18.078-2.795z"/>
            <path fill="#464646" d="M91.727 31.812c1.013 7.72 3.227 12.24 6.644 13.562l2.098-7.256-3-9.035-5.742 2.73z"/>
            <path fill="#E6B3A5" d="M97.469 45.865c2.652 11.259 10.151 16.835 22.497 16.727l-.002-.008c-2.833-.214-3.935-1.577-3.935-3.85l.001-9.89-.557-.338a175.895 175.895 0 0 0-3.604-2.115l-14.4-.526z"/>
            <path fill="#0F0F0F" d="M134.392 17.27s1.451 12.297-4.007 13.024l-1.692-13.3 5.7.275z"/>
            <path fill="#FFD3C7" d="M112.833 8.27c-9.985.348-17.826 8.745-17.476 18.768l1.288 14.73c.283 8.1 7.169 13.385 17.545 14.402l.316.03c8.92.9 16.206-3.609 16.897-15.53l.801-14.96c.572-10.672-9.385-17.79-19.37-17.44z"/>
            <path fill="#464646" d="M92.67 36.772l3.467-2.022 2.21-.193c-.006-4.97 1.08-8.195 3.258-9.673l-.424-4.851c-3.176-11.579-5.46-14.865-6.854-9.858-3.664.9-5.307 3.511-4.929 7.834l.027.294c.4 4.31 1.482 10.467 3.244 18.469z"/>
            <path fill="#FFD3C7" d="M96.952 40.206l-.61-6.979-.012-.132c-.178-1.562-1.442-3.995-4.563-1.635-3.185 2.408-1.148 12.059 5.185 8.746z"/>
            <path fill="#CF8570" fill-rule="nonzero" d="M119.653 35.7c.604 1.087.996 2.193 1.174 3.318.272 1.717-.815 2.25-2.677 1.749a.245.245 0 0 1 .127-.473c1.57.422 2.27.08 2.067-1.2-.168-1.067-.541-2.118-1.119-3.155a.245.245 0 0 1 .428-.238z"/>
            <path fill="#464646" fill-rule="nonzero" d="M114.133 26.407c-2.125-.819-4.591-.72-7.418.313a.489.489 0 1 1-.335-.919c3.035-1.11 5.742-1.218 8.104-.307a.49.49 0 0 1-.351.913zM122.307 26.65c2.126-.702 4.31-.729 6.568-.079a.489.489 0 1 0 .27-.94c-2.444-.704-4.83-.675-7.144.09a.49.49 0 0 0 .306.93z"/>
            <path fill="#050000" d="M112.294 33.023c-.81.014-1.482-.85-1.501-1.932-.019-1.08.622-1.968 1.432-1.982.81-.015 1.482.85 1.501 1.931.019 1.081-.622 1.969-1.432 1.983zM124.962 32.978c-.81.014-1.482-.85-1.501-1.931-.019-1.081.623-1.97 1.433-1.983.81-.014 1.481.85 1.5 1.931.02 1.081-.622 1.969-1.432 1.983z"/>
            <path fill="#FFF" d="M122.462 45.591l-7.88-.207a30.53 30.53 0 0 0-.478-.01c-.08 2.19 1.103 4.016 3.761 3.963 2.66-.053 4.371-1.55 4.597-3.746z"/>
            <path fill="#464646" d="M97.469 20.735l3.712-.702c14.19-2.407 25.694-2.407 34.515 0 1.7-5.513.33-10.542-4.109-15.088-6.66-6.819-33.188-7.891-37.26 5.23l1.724 9.376 1.418 1.184z"/>
            <path fill="#FFD3C7" d="M104.577 134.335v9.174l.468.073c7.36 1.135 12.784 1.11 16.27-.073 5.272-1.788 9.169-4.657 13.618-4.73l.171-.001c4.52 0 3.844-4.443 0-4.443h-30.527z"/>
            <path fill="#FE9B04" d="M91.083 63.94c-15.581.679-25.118 8.769-28.61 24.269l-.461 2.044c-4.62 20.414-6.224 26.075-7.367 30.8l-.182.764c-1.196 5.07-7.851 26.327 21.732 26.327h29.674v-20.407H79.05l12.033-63.798z"/>
            <path fill="#D57100" d="M83.11 127.758h-4.122l2.344-12.568z"/>
            <path fill="#34393A" d="M176.012 129.441H77.243v4.16c0 .54.438.978.978.978h97.79c.54 0 .979-.438.979-.978v-3.181a.978.978 0 0 0-.978-.979z"/>
            <path fill="#34393A" d="M143.252 129.441H77.243l-9.292-45.07a.979.979 0 0 1 .958-1.176h64.012c.464 0 .864.326.957.78l9.374 45.466z"/>
            <path fill="#FFF" d="M140.807 129.441H79.688l-8.926-43.8h61.12z"/>
            <path fill="#E6B3A5" d="M108.7 136.646h7.575c2.087.23 3.131 1.043 3.131 2.436 0 1.394-1.044 2.105-3.131 2.132l-7.575.29 7.575.194c2.609.168 3.913-.674 3.913-2.526 0-2.778-2.885-3.149-3.913-3.149-.686 0-3.21.208-7.575.623z"/>
        </g>
        <g>
            <path fill="#0F0A57" d="M521.006 213.474h-9.753V387.59h9.753zM555.143 213.474h-9.753V387.59h9.753zM229.62 213.474h-9.754V387.59h9.753zM263.756 213.474h-9.753V387.59h9.753z"/>
            <path fill="#CA6D3C" d="M567.335 208.596H232.057v28.044h335.278z"/>
            <path fill="#E68E60" d="M521.006 208.596H207.674v28.044h313.332z"/>
            <path fill="#CA6D3C" d="M567.335 208.596H207.674v13.413h359.661z"/>
            <path fill="#DB8051" d="M572.212 203.72H227.181v9.754h345.031z"/>
            <path fill="#E68E60" d="M521.006 203.72h-318.21v9.754h318.21z"/>
        </g>
        <g>
            <path fill="#4AD9C5" d="M229.435 128.71h46.312v63.945h-46.312z"/>
            <path fill="#FE9B04" d="M240.404 148.16h39v44.495h-39z"/>
            <path fill="#BF8DF2" d="M225.779 138.921h26.891l26.734 39.368v24.578h-53.625z"/>
            <path fill="#955CCE" d="M225.779 138.921h14.625v63.946h-14.625z"/>
        </g>
        <g>
            <path fill="#AEAECA" d="M343.034 198.473h122.78v4.394h-122.78z"/>
            <path fill="#D9D9E0" d="M339.004 149.167h80.59c1.218 0 2.249.901 2.413 2.11l7.022 51.59H343.52l-6.931-50.93a2.44 2.44 0 0 1 2.414-2.77z"/>
            <path fill="#FFF" d="M382.845 182.363c-3.838 0-7.518-3.114-8.22-6.956-.703-3.842 1.838-6.957 5.675-6.957 3.837 0 7.517 3.115 8.22 6.957.703 3.842-1.838 6.956-5.675 6.956z"/>
        </g>
        <g transform="translate(0 210.538)">
            <path fill="#E68E60" d="M.108 129.793h55.69l-7.035 47.768H7.143z"/>
            <path fill="#24710D" d="M0 39.944c2.858 24.812 6.802 43.92 11.832 57.321 5.03 13.402 8.153 16.539 9.367 9.41-4.213-17.888-7.335-30.258-9.367-37.11C9.8 62.713 5.856 52.839 0 39.944z"/>
            <ellipse cx="27.953" cy="129.793" fill="#000" rx="27.845" ry="2.123"/>
            <path fill="#24710D" d="M32.878 78.567c.283-23.574 1.248-38.367 2.897-44.381 2.473-9.021 5.1-20.65 5.1-25.819 0-3.445 1.702-6.234 5.108-8.367-4.874 1.019-8.277 5.034-10.208 12.046-2.897 10.519-7.34 23.795-9.571 27.898-2.232 4.102-3.456 71.291-2.232 78.049.816 4.505 1.243 8.331 1.28 11.479l4.34-5.732 3.286-45.173z"/>
            <path fill="#419428" d="M21.199 129.472h-4.59C7.594 102.982 2.06 86.015 0 78.567c8.843 11.97 14.38 21.799 16.61 29.488 2.229 7.69 3.758 14.829 4.589 21.417z"/>
            <path fill="#46AD26" d="M22.228 129.472c1.901-27.77-2.969-47.164-14.61-58.184-.423 12.49.824 22.713 3.74 30.666 2.917 7.954 5.629 17.127 8.135 27.518h2.735zM42.533 76.126C47.663 40.252 49.167 18 47.05 9.366 39.163 29.79 34.092 53.708 31.836 81.12l4.328 8.202 6.37-13.196z"/>
            <path fill="#419428" d="M23.972 78.567c.735-33.041-.758-56.44-4.48-70.2-4.715 28.053-6.296 53.787-4.742 77.2 1.553 23.415 3.024 38.05 4.413 43.905h7.62l-2.811-50.905zM34.735 129.472c.87-27.094 6.911-49.462 18.124-67.106-1.94 27.767-6.185 50.136-12.735 67.106h-5.389z"/>
            <path fill="#24710D" d="M30.986 129.472c-1.454-23.592-.6-39.187 2.565-46.785 4.747-11.399 12.432-36.917 12.432-45.281 3.352 16.24 3.352 28.827 0 37.76-5.027 13.4-10.208 40.741-10.208 54.306h-4.789z"/>
            <path fill="#46AD26" d="M19.493 129.472h8.958c-1.606-24.13-1.835-41.098-.686-50.905 1.149-9.807.803-24.029-1.037-42.666-4.823 20.585-7.235 40.278-7.235 59.08v34.49z"/>
            <path fill="#419428" d="M30.986 129.472c2.004-28.601 3.005-44.802 3.005-48.604 0-3.801.595-11.946 1.784-24.433-5.223 10.962-8.22 23.645-8.992 38.048-.772 14.403-.772 26.066 0 34.989h4.203z"/>
        </g>
        <g>
            <path fill="#FFD3C7" d="M315.583 376.469l4.63-4.704v-16.696h-20.934v21.4zM363.297 376.469l4.63-4.704v-16.696h-21.178v21.4z"/>
            <path fill="#4849E1" d="M334.057 227.05l9.886 130.782c4.031 1.195 8.496 1.792 13.395 1.792 4.899 0 9.11-.597 12.632-1.792l.109-87.94 2.278-98.301-11.254.092c-41.343.333-62.014.412-62.014.24.176 0-4.713 77.616-4.713 97.975v1.264c.019 14.08.331 42.971.938 86.67 3.295 1.195 7.962 1.792 14.002 1.792 6.039 0 10.606-.597 13.701-1.792l3.769-86.83 7.271-43.952z"/>
            <path fill="#2425B9" d="M325.148 198.058c1.297 1.623 5.659 2.34 6.854 1.623l2.055 27.369-1.103 6.655-7.806-35.647z"/>
            <path fill="#0F0A57" d="M320.213 367.923v17.722a1.953 1.953 0 0 1-1.948 1.957h-49.889c-.292-6.467 2.606-10.093 8.696-10.877l.186-.022c5.37-.634 11.416-2.97 16.073-5.747.97-.578 1.688-1.796 2.156-3.654a1.95 1.95 0 0 1 1.888-1.477h5.931c.885 0 1.656.599 1.882 1.454l.016.061c.669 2.903 2.819 4.497 6.449 4.781 4.219.33 7.072-1.069 8.56-4.198zM329.23 387.602c-.143-5.78 1.452-9.41 4.783-10.889 3.719-1.65 8.107-4.123 9.678-7.366.272-.562.507-1.241.706-2.039a1.95 1.95 0 0 1 1.89-1.483h8.578c.936 0 1.74.67 1.914 1.595.505 2.698 1.775 4.323 3.809 4.875 3.611.98 7.342-2.197 7.342-6.47v19.811c0 1.081-.872 1.958-1.947 1.958l-36.754.008z"/>
            <path fill="#292560" d="M324.347 62.658l27.767 1.333c12.244.518 21.785 10.672 21.43 22.984l-.042 1.538c-.236 8.768-.354 18.388-.354 28.859l.002 1.145c.038 15.89-.793 44.59-.793 53.074 0 7.584-20.088 9.404-35.532 9.404-15.498 0-26.992-1.481-34.482-4.442l-.225-.09c-1.958-.79-3.268-2.775-3.043-4.872 2.545-23.762 4.063-41.03 3.972-62.065-.035-8.172.273-17.494 0-25.642-.38-11.345 8.464-20.851 19.752-21.233a20.348 20.348 0 0 1 1.548.007z"/>
            <path fill="#0F0C39" d="M314.128 86.374l-15.078 12.83 1.15 15.124 1.347 8.219h8.48zM320.668 110.613l26.691 2.414 9.032-27.207 3.532 17.144-6.307 21.545z"/>
            <path fill="#FFD3C7" d="M321.845 62.64c-16.432-.128-26.695 10.151-30.79 30.838-6.141 31.03-8.035 42.292 8.716 42.292 11.168 0 26.617-1.524 46.35-4.572l-29.625-16.812-10.966 4.945 6.222-34.395 10.093-22.297z"/>
            <path fill="#E6B3A5" d="M305.443 119.422c4.668-.557 10.326 1.18 14.874 5.407l.137.129c3.828 3.38 7.838 6.11 12.033 8.193a593.129 593.129 0 0 0 13.634-1.953l-25.667-14.566c-4.494.273-9.497 1.204-15.01 2.79z"/>
            <path fill="#FFD3C7" d="M355.773 96.24l-4.76 21.787-3.308-.851c-16.821-4.317-26.62-6.617-29.395-6.9-4.429-.453-10.614 2.854-12.867 9.146 4.392-.916 8.278-.61 11.658.92 5.07 2.294 28.423 18.12 38.672 18.118 10.249-.001 15.316-12.04 20.764-36.311l-20.764-5.909zM344.275 36.637l1.06 18.887c.43 4.894 1.976 8.067 5.78 8.415-6 9.036-13.637 10.517-19.575 9.775-5.937-.742-11.415-3.652-9.187-11.13 2.821-.214 3.919-1.577 3.919-3.85V39.431l18.003-2.795z"/>
            <path fill="#464646" d="M350.473 31.812c-1.008 7.72-3.214 12.24-6.616 13.562l-2.09-7.256 2.988-9.035 5.718 2.73z"/>
            <path fill="#E6B3A5" d="M344.755 45.865c-2.641 11.259-10.109 16.835-22.404 16.727l.002-.008c2.821-.214 3.919-1.577 3.919-3.85v-9.89l.554-.338c1.122-.68 2.318-1.386 3.589-2.115l14.34-.526z"/>
            <path fill="#0F0F0F" d="M307.986 17.27s-1.446 12.297 3.99 13.024l1.685-13.3-5.675.275z"/>
            <path fill="#FFD3C7" d="M329.455 8.27c9.943.348 17.751 8.745 17.403 18.768l-1.282 14.73c-.282 8.1-7.14 13.385-17.473 14.402l-.314.03c-8.884.9-16.139-3.609-16.827-15.53l-.798-14.96c-.569-10.672 9.347-17.79 19.29-17.44z"/>
            <path fill="#CF8570" fill-rule="nonzero" d="M328.077 46.035l-.126.069a7.504 7.504 0 0 1-.372.181 9.854 9.854 0 0 1-1.359.5c-1.415.408-2.863.499-4.261.142a.245.245 0 0 0-.12.474c1.49.38 3.023.285 4.515-.145.52-.15 1-.33 1.426-.525l.171-.08.155-.077.16-.084.056-.032a.245.245 0 0 0 .088-.335.243.243 0 0 0-.333-.088z"/>
            <path fill="#464646" d="M349.535 36.772l-3.454-2.022-2.2-.193c.005-4.97-1.076-8.195-3.245-9.673l.423-4.851c3.162-11.579 5.437-14.865 6.824-9.858 3.65.9 5.285 3.511 4.91 7.834l-.027.294c-.4 4.31-1.476 10.467-3.231 18.469z"/>
            <path fill="#FFD3C7" d="M345.27 40.206l.62-7.111c.176-1.562 1.435-3.995 4.543-1.635 3.172 2.408 1.144 12.059-5.164 8.746z"/>
            <path fill="#CF8570" fill-rule="nonzero" d="M322.664 35.7c-.603 1.087-.993 2.193-1.17 3.318-.27 1.717.812 2.25 2.666 1.749a.245.245 0 0 0-.126-.473c-1.564.422-2.26.08-2.06-1.2.169-1.067.54-2.118 1.115-3.155a.245.245 0 0 0-.094-.333.243.243 0 0 0-.331.095z"/>
            <path fill="#464646" fill-rule="nonzero" d="M328.16 26.407c2.116-.819 4.573-.72 7.387.313a.49.49 0 0 0 .334-.92c-3.022-1.109-5.718-1.217-8.07-.306a.49.49 0 0 0 .35.913zM320.02 26.65c-2.116-.702-4.292-.729-6.54-.079a.49.49 0 0 1-.27-.94c2.434-.704 4.81-.675 7.115.09a.49.49 0 0 1-.305.93z"/>
            <path fill="#050000" d="M329.992 33.023c.807.014 1.476-.85 1.494-1.932.02-1.08-.62-1.968-1.426-1.982-.807-.015-1.476.85-1.495 1.931-.018 1.081.62 1.969 1.427 1.983zM317.377 32.978c.806.014 1.475-.85 1.494-1.931.019-1.081-.62-1.97-1.426-1.983-.807-.014-1.476.85-1.495 1.931-.019 1.081.62 1.969 1.427 1.983z"/>
            <path fill="#464646" d="M344.755 20.735l-3.696-.702c-14.13-2.407-25.588-2.407-34.371 0-1.694-5.513-.33-10.542 4.09-15.088 6.633-6.819 33.05-7.891 37.105 5.23l-1.716 9.376-1.412 1.184z"/>
            <path fill="#292560" d="M351.114 109.827l24.737 6.377a1066.666 1066.666 0 0 0 5.28-21.302c2.462-10.403-5.836-30.928-30.017-30.928l4.989 22.932-4.989 22.92zM310.607 105.164l-23.21-4.6c1.89-7.873 3.615-14.966 5.174-21.28 2.926-11.854 16.486-17.466 29.78-16.69l-3.935 9.043-7.81 33.527z"/>
        </g>
    </g>
</svg>
