<svg xmlns="http://www.w3.org/2000/svg" width="30" height="30" viewBox="0 0 30 30">
    <g fill="none" fill-rule="nonzero">
        <path fill="#FFF" d="M14.96 0C6.698 0 0 6.698 0 14.96c0 8.261 6.698 14.96 14.96 14.96 8.261 0 14.96-6.699 14.96-14.96C29.92 6.698 23.22 0 14.96 0z"/>
        <path fill="#332B5A" d="M20.262 9H9.738C7.674 9 6 10.708 6 12.815v5.37C6 20.292 7.674 22 9.738 22h10.524C22.326 22 24 20.292 24 18.185v-5.37C24 10.708 22.326 9 20.262 9zm-2.529 6.761l-4.922 2.396a.198.198 0 0 1-.282-.182v-4.942c0-.15.155-.247.287-.18l4.922 2.546a.204.204 0 0 1-.005.362z"/>
    </g>
</svg>
