<svg xmlns="http://www.w3.org/2000/svg" width="30" height="30" viewBox="0 0 30 30">
    <g fill="#FFF" fill-rule="nonzero">
        <path d="M19.499 8H10.58A2.584 2.584 0 0 0 8 10.581V19.5a2.585 2.585 0 0 0 2.581 2.581H19.5A2.585 2.585 0 0 0 22.08 19.5V10.58A2.584 2.584 0 0 0 19.5 8zM15.04 19.675a4.64 4.64 0 0 1-4.635-4.635 4.64 4.64 0 0 1 4.635-4.635 4.64 4.64 0 0 1 4.635 4.635 4.64 4.64 0 0 1-4.635 4.635zm4.784-8.312a1.098 1.098 0 0 1-1.097-1.096 1.098 1.098 0 0 1 2.194 0c0 .604-.492 1.096-1.097 1.096z"/>
        <path d="M14.677 12A2.68 2.68 0 0 0 12 14.676a2.68 2.68 0 0 0 2.677 2.677 2.68 2.68 0 0 0 2.676-2.677A2.68 2.68 0 0 0 14.677 12z"/>
        <path d="M14.96 0C6.698 0 0 6.698 0 14.96c0 8.261 6.698 14.96 14.96 14.96 8.261 0 14.96-6.699 14.96-14.96C29.92 6.698 23.22 0 14.96 0zm8.998 19.459a4.545 4.545 0 0 1-4.54 4.54h-8.917a4.545 4.545 0 0 1-4.54-4.54V10.54a4.545 4.545 0 0 1 4.54-4.54h8.917a4.545 4.545 0 0 1 4.54 4.54v8.918z"/>
    </g>
</svg>
