<svg xmlns="http://www.w3.org/2000/svg" width="30" height="30" viewBox="0 0 30 30">
    <path fill="#FFF" fill-rule="nonzero" d="M14.763 0c8.153 0 14.762 6.61 14.762 14.763 0 8.153-6.61 14.762-14.762 14.762C6.609 29.525 0 22.915 0 14.763 0 6.609 6.61 0 14.763 0zm4.758 11.174c-1.875 0-2.711 1.032-3.18 1.754v-1.504h-3.53c.046.956.004 9.872 0 10.57v.043h3.53v-5.928c0-.318.023-.633.116-.86.256-.635.835-1.29 1.81-1.29 1.278 0 1.787.974 1.787 2.4v5.678h3.53V15.95c0-3.26-1.741-4.777-4.063-4.777zm-8.66.25H7.333v10.613h3.528V11.424zM9.12 6.308c-1.207 0-1.997.792-1.997 1.833 0 1.02.767 1.835 1.95 1.835h.024c1.23 0 1.996-.816 1.996-1.835-.024-1.04-.766-1.833-1.973-1.833z"/>
</svg>
