<svg xmlns="http://www.w3.org/2000/svg" width="102" height="43" viewBox="0 0 102 43">
    <path fill="#D5D8ED" fill-rule="nonzero" d="M7.129 16.54c0-1.098.902-1.521 2.395-1.521 2.142 0 4.847.648 6.988 1.803V10.2c-2.338-.93-4.649-1.296-6.988-1.296C3.804 8.904 0 11.891 0 16.88c0 7.777 10.708 6.537 10.708 9.89 0 1.296-1.127 1.72-2.705 1.72-2.34 0-5.326-.96-7.693-2.255v6.706a19.533 19.533 0 0 0 7.693 1.606c5.86 0 9.89-2.902 9.89-7.946-.028-8.397-10.764-6.904-10.764-10.06zM26.177 3.27l-6.875 1.465-.028 22.57c0 4.171 3.128 7.242 7.298 7.242 2.31 0 4.001-.422 4.931-.93v-5.72c-.902.367-5.354 1.663-5.354-2.508V15.385h5.354V9.383h-5.354l.028-6.114zm14.09 8.2l-.451-2.086h-6.087V34.04h7.045v-16.71c1.662-2.17 4.48-1.775 5.353-1.465v-6.48c-.901-.339-4.198-.959-5.86 2.084zm7.58-2.086h7.072V34.04h-7.073V9.383zm0-2.141l7.072-1.522V0l-7.073 1.493v5.749zm21.78 1.662c-2.76 0-4.536 1.296-5.522 2.198l-.366-1.747h-6.2v32.856l7.045-1.494.028-7.974c1.015.733 2.508 1.775 4.988 1.775 5.044 0 9.637-4.058 9.637-12.99-.028-8.172-4.678-12.624-9.61-12.624zm-1.69 19.415c-1.662 0-2.649-.592-3.325-1.324l-.028-10.455c.733-.817 1.747-1.38 3.353-1.38 2.564 0 4.34 2.874 4.34 6.565 0 3.776-1.747 6.594-4.34 6.594zm33.504-6.51c0-7.213-3.494-12.905-10.172-12.905-6.707 0-10.765 5.692-10.765 12.85 0 8.48 4.791 12.764 11.666 12.764 3.353 0 5.89-.76 7.806-1.831V27.05c-1.916.958-4.114 1.55-6.904 1.55-2.733 0-5.157-.958-5.466-4.283h13.779c0-.367.056-1.832.056-2.508zm-13.92-2.676c0-3.184 1.944-4.509 3.72-4.509 1.718 0 3.55 1.325 3.55 4.509h-7.27z"/>
</svg>
